<svg width="39" height="40" viewBox="0 0 39 40" fill="none" xmlns="http://www.w3.org/2000/svg">
<path d="M34.6667 19.8917C34.6667 15.6667 33.1948 12.0831 30.251 9.14072C27.3072 6.19839 23.7236 4.7265 19.5 4.72506V0.391724C22.2083 0.391724 24.7455 0.906668 27.1115 1.93656C29.4775 2.96645 31.5358 4.35672 33.2865 6.10739C35.0372 7.85806 36.4274 9.91639 37.4573 12.2824C38.4872 14.6484 39.0014 17.1848 39 19.8917H34.6667ZM26 19.8917C26 18.0862 25.3681 16.5514 24.1042 15.2876C22.8403 14.0237 21.3056 13.3917 19.5 13.3917V9.05839C22.4972 9.05839 25.0524 10.115 27.1657 12.2282C29.2789 14.3414 30.3348 16.8959 30.3333 19.8917H26ZM36.725 39.5001C32.0667 39.5001 27.5253 38.4615 23.101 36.3844C18.6767 34.3073 14.7586 31.5628 11.3468 28.1511C7.93506 24.7393 5.19061 20.8212 3.1135 16.3969C1.03639 11.9726 -0.00144294 7.43195 1.50568e-06 2.77506C1.50568e-06 2.12506 0.216668 1.58339 0.650001 1.15006C1.08333 0.716723 1.625 0.500057 2.275 0.500057H11.05C11.5556 0.500057 12.0069 0.662557 12.4042 0.987557C12.8014 1.31256 13.0361 1.72783 13.1083 2.23339L14.5167 9.81672C14.5889 10.3223 14.5795 10.7831 14.4885 11.1991C14.3975 11.6151 14.1902 11.9848 13.8667 12.3084L8.66667 17.6167C10.1833 20.2167 12.0792 22.6542 14.3542 24.9292C16.6292 27.2042 19.1389 29.1723 21.8833 30.8334L26.975 25.7417C27.3 25.4167 27.7247 25.1733 28.249 25.0116C28.7733 24.8498 29.2876 24.8043 29.7917 24.8751L37.2667 26.3917C37.7722 26.5001 38.1875 26.7442 38.5125 27.1241C38.8375 27.5039 39 27.9459 39 28.4501V37.2251C39 37.8751 38.7833 38.4167 38.35 38.8501C37.9167 39.2834 37.375 39.5001 36.725 39.5001Z" fill="#9DCCF7"/>
</svg>
