<svg width="44" height="44" viewBox="0 0 44 44" fill="none" xmlns="http://www.w3.org/2000/svg">
<path d="M37.3333 6.80513C35.3469 4.79864 32.9809 3.20774 30.3732 2.12524C27.7655 1.04274 24.9684 0.490293 22.145 0.500129C10.315 0.500129 0.673334 10.1418 0.673334 21.9718C0.673334 25.7635 1.67 29.4468 3.53333 32.6968L0.5 43.8335L11.875 40.8435C15.0167 42.5551 18.5483 43.4651 22.145 43.4651C33.975 43.4651 43.6167 33.8235 43.6167 21.9935C43.6167 16.2518 41.385 10.8568 37.3333 6.80513ZM22.145 39.8251C18.9383 39.8251 15.7967 38.9585 13.045 37.3335L12.395 36.9435L5.635 38.7201L7.43333 32.1335L7 31.4618C5.21845 28.6169 4.27247 25.3285 4.27 21.9718C4.27 12.1351 12.2867 4.11846 22.1233 4.11846C26.89 4.11846 31.375 5.9818 34.7333 9.3618C36.3962 11.0171 37.714 12.9859 38.6104 15.1542C39.5067 17.3225 39.9637 19.6472 39.955 21.9935C39.9983 31.8301 31.9817 39.8251 22.145 39.8251ZM31.9383 26.4785C31.3967 26.2185 28.7533 24.9185 28.2767 24.7235C27.7783 24.5501 27.4317 24.4635 27.0633 24.9835C26.695 25.5251 25.6767 26.7385 25.3733 27.0851C25.07 27.4535 24.745 27.4968 24.2033 27.2151C23.6617 26.9551 21.9283 26.3701 19.8917 24.5501C18.2883 23.1201 17.2267 21.3651 16.9017 20.8235C16.5983 20.2818 16.8583 20.0001 17.14 19.7185C17.3783 19.4801 17.6817 19.0901 17.9417 18.7868C18.2017 18.4835 18.31 18.2451 18.4833 17.8985C18.6567 17.5301 18.57 17.2268 18.44 16.9668C18.31 16.7068 17.2267 14.0635 16.7933 12.9801C16.36 11.9401 15.905 12.0701 15.58 12.0485H14.54C14.1717 12.0485 13.6083 12.1785 13.11 12.7201C12.6333 13.2618 11.2467 14.5618 11.2467 17.2051C11.2467 19.8485 13.175 22.4051 13.435 22.7518C13.695 23.1201 17.2267 28.5368 22.6 30.8551C23.8783 31.4185 24.875 31.7435 25.655 31.9818C26.9333 32.3935 28.1033 32.3285 29.035 32.1985C30.075 32.0468 32.22 30.8985 32.6533 29.6418C33.1083 28.3851 33.1083 27.3235 32.9567 27.0851C32.805 26.8468 32.48 26.7385 31.9383 26.4785Z" fill="#9DCCF7"/>
</svg>
