<svg width="79" height="92" viewBox="0 0 79 92" fill="none" xmlns="http://www.w3.org/2000/svg">
<path fill-rule="evenodd" clip-rule="evenodd" d="M0 10.2628C0 4.87096 4.42119 0.5 9.875 0.5H69.125C74.5788 0.5 79 4.87095 79 10.2628V81.7372C79 87.129 74.5788 91.5 69.125 91.5H9.875C4.42119 91.5 0 87.1291 0 81.7372V10.2628ZM5 12.5C5 8.63401 8.13401 5.5 12 5.5H67C70.866 5.5 74 8.63401 74 12.5V79.5C74 83.366 70.866 86.5 67 86.5H12C8.13401 86.5 5 83.366 5 79.5V12.5ZM10.708 29.868V41.28L15.856 41.532L16.036 40.272L13.48 39.516V29.292L10.672 27.456L13.48 25.836V15.036L16.036 14.316L15.856 13.02L10.708 13.272V25.26L8.188 26.952V28.176L10.708 29.868ZM21.4776 36.996C22.3416 37.548 23.2656 37.824 24.2496 37.824C24.3936 37.824 24.9936 37.428 26.0496 36.636C27.1056 35.82 27.7056 35.352 27.8496 35.232V36.636C27.8496 36.756 28.0296 36.984 28.3896 37.32C28.7496 37.656 28.9776 37.824 29.0736 37.824C29.2896 37.824 30.3456 37.632 32.2416 37.248V35.916L31.0176 35.412V21.876C27.2976 21.324 25.1976 21.048 24.7176 21.048C24.2856 21.048 23.3976 21.504 22.0536 22.416C20.7336 23.328 19.8816 24.06 19.4976 24.612C19.2336 25.116 19.0176 25.86 18.8496 26.844C18.7056 27.804 18.6336 28.848 18.6336 29.976C18.6336 31.728 18.8976 33.192 19.4256 34.368C19.9536 35.544 20.6376 36.42 21.4776 36.996ZM27.7416 33.72C25.8216 34.68 24.7296 35.16 24.4656 35.16C24.1776 35.16 23.8416 34.968 23.4576 34.584C23.0976 34.2 22.7736 33.6 22.4856 32.784C22.2216 31.968 22.0896 30.948 22.0896 29.724C22.0896 27.324 22.1976 25.644 22.4136 24.684C22.6536 23.724 23.0016 23.208 23.4576 23.136C23.7936 23.088 24.4416 23.148 25.4016 23.316C26.3616 23.46 27.1416 23.628 27.7416 23.82V33.72ZM37.1463 39.516L34.5903 40.272L34.7703 41.532L39.9183 41.28V29.868L42.4383 28.176V26.952L39.9183 25.26V13.272L34.7703 13.02L34.5903 14.316L37.1463 15.036V25.836L39.9543 27.456L37.1463 29.292V39.516ZM46 11.5H70V14.5H46V11.5ZM70 20.5H46V23.5H70V20.5ZM46 29.5H70V32.5H46V29.5ZM70 38.5H46V41.5H70V38.5ZM9 47.5H70V50.5H9V47.5ZM70 56.5H9V59.5H70V56.5ZM9 65.5H70V68.5H9V65.5ZM70 74.5H9V77.5H70V74.5Z" fill="#9DCCF7" fill-opacity="0.45"/>
</svg>
