<svg width="57" height="57" viewBox="0 0 57 57" fill="none" xmlns="http://www.w3.org/2000/svg">
<path fill-rule="evenodd" clip-rule="evenodd" d="M54.0232 32.7617C55.4199 31.3848 56.4004 29.875 56.4004 28.2002C56.4004 26.5254 55.4199 25.0156 54.0232 23.6387C53.1873 22.8164 52.2126 22.0293 51.3542 21.2305C50.6685 20.5928 50.0508 19.9668 49.7617 19.2695C49.5623 18.79 49.4854 18.2344 49.4634 17.6387C49.4521 17.3291 49.4556 17.0088 49.4644 16.6826C49.4956 15.5039 49.623 14.2598 49.6316 13.0986C49.6484 11.1406 49.283 9.4043 48.1411 8.25879C46.9966 7.11719 45.2598 6.75195 43.3018 6.76855C42.6692 6.77539 42.0125 6.81543 41.3555 6.85547C40.8059 6.88867 40.2561 6.92188 39.7205 6.93555C38.7656 6.96191 37.8589 6.94141 37.1309 6.63867C36.4338 6.34961 35.8076 5.73145 35.1702 5.0459C34.3711 4.1875 33.5835 3.21289 32.7617 2.37988C31.3848 0.980469 29.8748 0 28.2002 0C26.5256 0 25.0154 0.980469 23.6384 2.37988C23.1594 2.86523 22.6919 3.39941 22.2268 3.93066C21.8943 4.31055 21.5632 4.68848 21.2302 5.0459C20.5928 5.73145 19.9636 6.34961 19.2695 6.63867C18.5413 6.94141 17.6348 6.96191 16.6826 6.93555C16.1453 6.92188 15.5942 6.88867 15.0437 6.85547C14.3867 6.81543 13.7305 6.77539 13.0984 6.76855C11.1406 6.75195 9.40088 7.11719 8.25928 8.25879C7.1145 9.4043 6.75195 11.1406 6.7688 13.0986C6.77734 14.2598 6.90479 15.5039 6.93604 16.6826C6.96143 17.6377 6.94165 18.541 6.63843 19.2725C6.34961 19.9668 5.73193 20.5928 5.04614 21.2305C4.19043 22.0293 3.21582 22.8164 2.37988 23.6387C0.983154 25.0156 0 26.5254 0 28.2002C0 29.875 0.983154 31.3848 2.37988 32.7617C3.21582 33.584 4.19043 34.3711 5.04614 35.1699C5.73193 35.8076 6.34961 36.4336 6.63843 37.1279C6.86108 37.665 6.93091 38.2949 6.94214 38.9697C6.94629 39.2139 6.94287 39.4639 6.93604 39.7178C6.90479 40.8965 6.77734 42.1406 6.7688 43.3018C6.75195 45.2598 7.1145 46.9961 8.25928 48.1416C9.40088 49.2832 11.1406 49.6484 13.0984 49.6318C13.7336 49.625 14.3933 49.585 15.0535 49.5449C15.6008 49.5117 16.1484 49.4785 16.6826 49.4639C17.6348 49.4385 18.5413 49.459 19.2695 49.7617C19.9636 50.0508 20.5928 50.6689 21.2302 51.3545C22.0291 52.2129 22.8169 53.1875 23.6384 54.0205C25.0154 55.4199 26.5256 56.4004 28.2002 56.4004C29.8748 56.4004 31.3848 55.4199 32.7617 54.0205C33.5835 53.1875 34.3711 52.2129 35.1702 51.3545C35.8076 50.6689 36.4338 50.0508 37.1309 49.7617C37.8589 49.459 38.7656 49.4385 39.7205 49.4639C40.8962 49.4951 42.1401 49.6201 43.3018 49.6318C45.2598 49.6484 46.9966 49.2832 48.1411 48.1416C49.283 46.9961 49.6484 45.2598 49.6316 43.3018C49.623 42.1406 49.4956 40.8965 49.4644 39.7178C49.4531 39.2959 49.4507 38.8838 49.4778 38.4922C49.5117 37.998 49.5928 37.5371 49.7617 37.1309C50.0508 36.4336 50.6685 35.8076 51.3542 35.1699C51.7148 34.834 52.0959 34.5 52.4788 34.165C53.0071 33.7031 53.5386 33.2383 54.0232 32.7617ZM52.9834 26.7324C53.3176 27.1943 53.5669 27.668 53.5669 28.2002C53.5669 28.7324 53.3176 29.2061 52.9834 29.668C52.7402 30.0029 52.4507 30.3262 52.1348 30.6436C51.8469 30.9326 51.5371 31.2158 51.2209 31.498L50.7927 31.8789C49.2739 33.2295 47.7498 34.583 47.1438 36.043C46.5061 37.585 46.6208 39.6895 46.7334 41.752L46.7585 42.2139C46.8066 43.1064 46.835 43.9766 46.7161 44.75C46.6338 45.291 46.4893 45.7842 46.1379 46.1348C45.7839 46.4893 45.2908 46.6338 44.7498 46.7158C43.9761 46.835 43.1064 46.8066 42.2139 46.7588L41.7483 46.7334C39.6863 46.6211 37.5845 46.5059 36.0457 47.1436C34.4448 47.8066 32.9744 49.5664 31.498 51.2207C30.906 51.8838 30.3081 52.5186 29.6677 52.9834C29.2061 53.3174 28.7329 53.5674 28.2002 53.5674C27.6704 53.5674 27.1943 53.3174 26.7324 52.9834C26.0923 52.5186 25.4944 51.8838 24.9021 51.2207L24.5366 50.8096C23.1826 49.2832 21.8235 47.752 20.3547 47.1436C18.8159 46.5059 16.7136 46.6211 14.6521 46.7334L14.1865 46.7588C13.2939 46.8066 12.4241 46.835 11.6506 46.7158C11.3928 46.6768 11.147 46.624 10.9221 46.542C10.6726 46.4502 10.4487 46.3213 10.2625 46.1348C9.9082 45.7842 9.7666 45.291 9.68433 44.75C9.56543 43.9766 9.59375 43.1064 9.63892 42.2139C9.75806 40.0068 9.94214 37.7002 9.25659 36.0459C8.64819 34.5771 7.11646 33.2178 5.5896 31.8633L5.17944 31.498C4.88208 31.2324 4.59033 30.9658 4.31738 30.6953C3.98145 30.3623 3.67334 30.0215 3.41699 29.668C3.08276 29.2061 2.83325 28.7324 2.83325 28.2002C2.83325 27.668 3.08276 27.1943 3.41699 26.7324C3.7063 26.333 4.06177 25.9512 4.44897 25.5762C4.68335 25.3496 4.92944 25.126 5.17944 24.9023L5.5896 24.5371C7.11646 23.1826 8.64819 21.8232 9.25659 20.3545C9.64136 19.4258 9.7522 18.292 9.75415 17.085C9.75586 16.1416 9.69116 15.1543 9.63892 14.1865C9.59375 13.2939 9.56543 12.4238 9.68433 11.6504C9.7312 11.3428 9.79712 11.0508 9.91089 10.791C9.99683 10.5947 10.1099 10.417 10.2625 10.2656C10.6165 9.91113 11.1067 9.7666 11.6506 9.68457C12.4241 9.56543 13.2939 9.59375 14.1865 9.6416L14.6521 9.66699C16.7136 9.7793 18.8159 9.89453 20.3547 9.25684C21.9556 8.59375 23.426 6.83398 24.9021 5.17969C25.4944 4.5166 26.0923 3.88184 26.7324 3.41699C27.1943 3.08301 27.6704 2.83301 28.2002 2.83301C28.7329 2.83301 29.2061 3.08301 29.6677 3.41699C30.3081 3.88184 30.906 4.5166 31.498 5.17969C32.9744 6.83398 34.4448 8.59375 36.0457 9.25684C37.5845 9.89453 39.6863 9.7793 41.7483 9.66699L42.2139 9.6416C43.1064 9.59375 43.9761 9.56543 44.7498 9.68457C45.2908 9.7666 45.7839 9.91113 46.1379 10.2656C46.4893 10.6162 46.6338 11.1094 46.7161 11.6504C46.835 12.4238 46.8066 13.2939 46.7585 14.1865L46.7334 14.6484C46.6208 16.7109 46.5061 18.8154 47.1438 20.3574C47.7498 21.8174 49.2739 23.1709 50.7927 24.5215L51.2209 24.9023C51.884 25.4941 52.5186 26.0918 52.9834 26.7324ZM18.8462 21.5C16.1077 21.5 14.3035 21.8486 13.1328 22.2461C12.5583 22.4414 12.1357 22.6494 11.8308 22.833H11C10.1716 22.833 9.5 23.5049 9.5 24.333C9.5 25.1025 10.0786 25.7363 10.824 25.8232C10.9006 29.0752 11.2654 31.6309 12.3225 33.4277C12.9688 34.5254 13.8616 35.3281 15.0171 35.833C16.136 36.3213 17.427 36.5 18.8462 36.5C20.2651 36.5 21.5562 36.3213 22.675 35.833C23.8308 35.3281 24.7234 34.5254 25.3696 33.4277C26.2371 31.9531 26.6384 29.9688 26.7969 27.5068C26.8538 27.3486 26.8845 27.1777 26.8845 27C26.8845 26.7715 26.9487 26.5527 27.0632 26.3672C27.1084 26.2939 27.1614 26.2266 27.2214 26.165C27.4331 25.9492 27.7136 25.833 28 25.833C28.2864 25.833 28.5669 25.9492 28.7786 26.165C28.8923 26.2812 28.981 26.4209 29.0386 26.5752C29.0886 26.708 29.1155 26.8525 29.1155 27C29.1155 27.1777 29.1462 27.3486 29.2031 27.5068C29.3616 29.9688 29.7629 31.9531 30.6304 33.4277C31.2766 34.5254 32.1692 35.3281 33.325 35.833C34.4438 36.3213 35.7349 36.5 37.1538 36.5C38.573 36.5 39.864 36.3213 40.9829 35.833C42.1384 35.3281 43.0312 34.5254 43.6775 33.4277C44.7346 31.6309 45.0994 29.0752 45.176 25.8232C45.9214 25.7363 46.5 25.1025 46.5 24.333C46.5 23.5049 45.8284 22.833 45 22.833H44.1692C43.8643 22.6494 43.4417 22.4414 42.8672 22.2461C41.6965 21.8486 39.8923 21.5 37.1538 21.5C34.4153 21.5 32.6113 21.8486 31.4404 22.2461C31.1116 22.3584 30.8323 22.4746 30.5964 22.5879C30.4114 22.6768 30.2532 22.7637 30.1187 22.8457C29.9658 22.9395 29.8442 23.0254 29.7498 23.1006C29.7126 23.1299 29.6797 23.1582 29.6506 23.1836C29.1362 22.9551 28.5752 22.833 28 22.833C27.6611 22.833 27.3271 22.876 27.0046 22.957C26.7798 23.0137 26.5605 23.0898 26.3494 23.1836L26.3047 23.1455L26.2502 23.1006C26.1787 23.0439 26.0916 22.9805 25.9871 22.9121L25.8813 22.8457C25.5752 22.6582 25.1465 22.4463 24.5596 22.2461C23.3887 21.8486 21.5847 21.5 18.8462 21.5ZM14.9082 31.9062C14.2151 30.7285 13.8616 28.6914 13.8135 25.1924C13.8965 25.1592 13.991 25.123 14.0981 25.0869C14.8887 24.8184 16.3538 24.5 18.8462 24.5C21.3384 24.5 22.8035 24.8184 23.5942 25.0869C23.7012 25.123 23.7959 25.1592 23.8789 25.1924C23.8308 28.6914 23.4773 30.7285 22.7842 31.9062C22.4497 32.4746 22.0347 32.8389 21.4739 33.084C20.8765 33.3447 20.0425 33.5 18.8462 33.5C17.6499 33.5 16.8159 33.3447 16.2185 33.084C15.6577 32.8389 15.2427 32.4746 14.9082 31.9062ZM33.2158 31.9062C32.5227 30.7285 32.1692 28.6914 32.1211 25.1924L32.2488 25.1426L32.4058 25.0869C33.1965 24.8184 34.6616 24.5 37.1538 24.5C39.6462 24.5 41.1113 24.8184 41.9019 25.0869C42.009 25.123 42.1035 25.1592 42.1865 25.1924C42.1384 28.6914 41.7849 30.7285 41.0918 31.9062C40.7573 32.4746 40.3423 32.8389 39.7815 33.084C39.1841 33.3447 38.3501 33.5 37.1538 33.5C35.9575 33.5 35.1235 33.3447 34.5261 33.084C34.1799 32.9326 33.8894 32.7363 33.6392 32.4746C33.4839 32.3115 33.344 32.124 33.2158 31.9062Z" fill="#2C4FA9"/>
</svg>
