<svg width="69" height="90" viewBox="0 0 69 90" fill="none" xmlns="http://www.w3.org/2000/svg">
<path fill-rule="evenodd" clip-rule="evenodd" d="M56.2203 22.697C56.2687 22.697 56.3171 22.6973 56.3654 22.698C56.0945 21.0373 55.637 19.4095 54.9992 17.847C53.9041 15.1646 52.2991 12.7273 50.2757 10.6743C48.2524 8.62125 45.8503 6.99269 43.2066 5.8816C40.5629 4.7705 37.7295 4.19863 34.868 4.19863C32.0065 4.19863 29.1731 4.7705 26.5294 5.8816C23.8858 6.99269 21.4837 8.62125 19.4603 10.6743C17.4369 12.7273 15.8319 15.1646 14.7369 17.847C14.099 19.4095 13.6415 21.0373 13.3706 22.698C13.419 22.6973 13.4673 22.697 13.5157 22.697L13.5157 33.5296L13.5157 44.3623C12.1137 44.3623 10.7254 44.0821 9.43012 43.5377C8.13483 42.9933 6.9579 42.1954 5.96653 41.1895C4.97516 40.1836 4.18876 38.9894 3.65223 37.6751C3.11571 36.3608 2.83956 34.9522 2.83956 33.5296C2.83956 32.1071 3.11571 30.6984 3.65223 29.3841C4.18876 28.0699 4.97516 26.8757 5.96653 25.8698C6.86518 24.958 7.91629 24.217 9.06982 23.6809C9.32239 21.1273 9.94237 18.6201 10.9139 16.2403C12.2169 13.0485 14.1267 10.1483 16.5343 7.7054C18.9419 5.26249 21.8002 3.32466 24.9459 2.00257C28.0916 0.680474 31.4631 0 34.868 0C38.2729 0 41.6444 0.680473 44.7901 2.00257C47.9358 3.32466 50.7941 5.26249 53.2017 7.7054C55.6093 10.1483 57.5192 13.0485 58.8221 16.2403C59.7937 18.6201 60.4136 21.1273 60.6662 23.681C61.8197 24.2171 62.8708 24.958 63.7695 25.8698C64.7608 26.8757 65.5472 28.0699 66.0837 29.3842C66.6203 30.6985 66.8964 32.1071 66.8964 33.5297C66.8964 34.9522 66.6203 36.3609 66.0837 37.6751C65.5472 38.9894 64.7608 40.1836 63.7695 41.1895C63.1517 41.8163 62.4619 42.3624 61.7163 42.8166C61.7403 43.2496 61.7341 43.6861 61.6966 44.1228C61.4966 46.4553 60.4216 48.6263 58.6869 50.201C56.9521 51.7758 54.6857 52.6381 52.3414 52.6153C51.2139 52.6043 50.1084 52.389 49.0749 51.9895C48.4906 53.5601 46.976 54.6791 45.1997 54.6791C42.9173 54.6791 41.067 52.8315 41.067 50.5524C41.067 48.2733 42.9173 46.4257 45.1997 46.4257C47.0537 46.4257 48.6226 47.6448 49.1462 49.324C50.1261 49.8596 51.2306 50.1519 52.3653 50.1629C54.0904 50.1797 55.7582 49.5452 57.0347 48.3863C58.3104 47.2284 59.1012 45.6322 59.2492 43.9172C58.2677 44.2118 57.2477 44.3623 56.2203 44.3623V33.5297V22.697ZM34.9437 52.4939C36.4593 52.4939 37.9355 52.3275 39.3546 52.0122C39.1257 51.397 39.0007 50.7313 39.0007 50.0366C39.0007 46.9028 41.5448 44.3623 44.6832 44.3623C46.5261 44.3623 48.1641 45.2384 49.2024 46.5962C52.7531 43.0335 54.9437 38.1462 54.9437 32.7538C54.9437 21.8517 45.9894 13.0138 34.9437 13.0138C23.898 13.0138 14.9437 21.8517 14.9437 32.7538C14.9437 43.656 23.898 52.4939 34.9437 52.4939ZM34.9437 56.4419C53.7214 56.4419 68.9437 71.4664 68.9437 90H0.943726C0.943726 71.4664 16.166 56.4419 34.9437 56.4419Z" fill="#9DCCF7"/>
</svg>
