<svg width="80" height="91" viewBox="0 0 80 91" fill="none" xmlns="http://www.w3.org/2000/svg">
<path fill-rule="evenodd" clip-rule="evenodd" d="M26.9438 0C20.8687 0 15.9438 4.92487 15.9438 11V32H0.943848V81.2372C0.943848 86.6291 5.36504 91 10.8188 91H70.0688C75.5227 91 79.9438 86.629 79.9438 81.2372V32H65.9438V11C65.9438 4.92487 61.019 0 54.9438 0H41.9438H39.9438H26.9438ZM61.9438 32V12C61.9438 7.58172 58.3621 4 53.9438 4H50.4295C52.0002 5.90188 52.9438 8.34074 52.9438 11V32H61.9438ZM48.9438 32V12C48.9438 7.58172 45.3621 4 40.9438 4C36.5256 4 32.9438 7.58172 32.9438 12V32H48.9438ZM28.9438 32V11C28.9438 8.34074 29.8875 5.90188 31.4582 4H27.9438C23.5256 4 19.9438 7.58172 19.9438 12V32H28.9438ZM42.2875 40.3664L44.871 42.751C45.6724 43.4907 46.7864 43.7892 47.8504 43.5493L51.28 42.7759C51.9125 42.6333 52.5485 43.0005 52.7413 43.6196L53.7863 46.9764C54.1105 48.0178 54.926 48.8333 55.9674 49.1575L59.3242 50.2026C59.9433 50.3953 60.3105 51.0313 60.1679 51.6639L59.3945 55.0934C59.1546 56.1574 59.4531 57.2714 60.1929 58.0729L62.5774 60.6563C63.0172 61.1328 63.0172 61.8672 62.5774 62.3437L60.1929 64.9271C59.4531 65.7286 59.1546 66.8426 59.3945 67.9066L60.1679 71.3361C60.3105 71.9687 59.9433 72.6047 59.3242 72.7974L55.9674 73.8425C54.926 74.1667 54.1105 74.9822 53.7863 76.0236L52.7413 79.3804C52.5485 79.9995 51.9125 80.3667 51.28 80.2241L47.8504 79.4507C46.7864 79.2108 45.6724 79.5092 44.871 80.249L42.2875 82.6336C41.811 83.0734 41.0766 83.0734 40.6002 82.6336L38.0167 80.249C37.2153 79.5092 36.1013 79.2108 35.0373 79.4507L31.6077 80.2241C30.9752 80.3667 30.3392 79.9995 30.1464 79.3804L29.1014 76.0236C28.7772 74.9822 27.9617 74.1667 26.9203 73.8425L23.5635 72.7974C22.9444 72.6047 22.5772 71.9687 22.7198 71.3361L23.4932 67.9066C23.7331 66.8426 23.4346 65.7286 22.6948 64.9271L20.3103 62.3437C19.8705 61.8672 19.8705 61.1328 20.3103 60.6563L22.6948 58.0729C23.4346 57.2714 23.7331 56.1574 23.4932 55.0934L22.7198 51.6639C22.5772 51.0313 22.9444 50.3953 23.5635 50.2026L26.9203 49.1575C27.9617 48.8333 28.7772 48.0178 29.1014 46.9764L30.1464 43.6196C30.3392 43.0005 30.9752 42.6333 31.6077 42.7759L35.0373 43.5493C36.1013 43.7892 37.2153 43.4907 38.0167 42.751L40.6002 40.3664C41.0766 39.9266 41.811 39.9266 42.2875 40.3664ZM39.8971 39.6047C40.7707 38.7984 42.117 38.7984 42.9906 39.6047L45.574 41.9893C46.125 42.4979 46.8909 42.7031 47.6224 42.5381L51.052 41.7648C52.2116 41.5033 53.3776 42.1765 53.731 43.3115L54.776 46.6683C54.9989 47.3843 55.5596 47.9449 56.2756 48.1678L59.6323 49.2128C60.7674 49.5662 61.4406 50.7322 61.1791 51.8919L60.4057 55.3215C60.2408 56.053 60.446 56.8188 60.9546 57.3698L63.3391 59.9533C64.1454 60.8268 64.1454 62.1732 63.3391 63.0467L60.9546 65.6302C60.446 66.1812 60.2408 66.947 60.4057 67.6785L61.1791 71.1081C61.4406 72.2678 60.7674 73.4338 59.6323 73.7872L56.2756 74.8322C55.5596 75.0551 54.9989 75.6157 54.776 76.3317L53.731 79.6885C53.3776 80.8235 52.2116 81.4967 51.052 81.2352L47.6224 80.4619C46.8909 80.2969 46.125 80.5021 45.574 81.0107L42.9906 83.3953C42.117 84.2016 40.7707 84.2016 39.8971 83.3953L37.3137 81.0107C36.7627 80.5021 35.9968 80.2969 35.2653 80.4619L31.8357 81.2352C30.6761 81.4967 29.5101 80.8235 29.1567 79.6885L28.1116 76.3317C27.8887 75.6157 27.3281 75.0551 26.6121 74.8322L23.2553 73.7872C22.1203 73.4338 21.4471 72.2678 21.7086 71.1081L22.482 67.6785C22.6469 66.947 22.4417 66.1812 21.9331 65.6302L19.5486 63.0467C18.7423 62.1732 18.7423 60.8268 19.5486 59.9533L21.9331 57.3698C22.4417 56.8188 22.6469 56.053 22.482 55.3215L21.7086 51.8919C21.4471 50.7322 22.1203 49.5662 23.2553 49.2128L26.6121 48.1678C27.3281 47.9449 27.8887 47.3843 28.1116 46.6683L29.1567 43.3115C29.5101 42.1765 30.6761 41.5033 31.8357 41.7648L35.2653 42.5381C35.9968 42.7031 36.7627 42.4979 37.3137 41.9893L39.8971 39.6047ZM36.1516 71.0829L36.1655 71.0924L36.1797 71.1015C37.3341 71.839 38.5908 72.2182 39.9304 72.2182C40.1471 72.2182 40.3214 72.1538 40.3886 72.128C40.4802 72.0929 40.5666 72.0504 40.6403 72.0111C40.7893 71.9319 40.9602 71.826 41.1441 71.7047C41.5157 71.4594 42.0121 71.1027 42.6255 70.6426L42.6315 70.6381L42.6374 70.6336L43.1237 70.2575C43.148 70.322 43.1738 70.3757 43.1949 70.4165C43.2619 70.546 43.3435 70.661 43.4186 70.7563C43.5694 70.9472 43.7682 71.1506 43.9914 71.3589C44.21 71.563 44.4131 71.7394 44.5917 71.871C44.68 71.936 44.7845 72.0068 44.8979 72.0656C44.9818 72.1091 45.202 72.2182 45.4865 72.2182C45.7069 72.2182 46.1028 72.154 46.5332 72.0782C47.0145 71.9933 47.6746 71.8673 48.5101 71.7011C49.4778 71.5085 50.1718 70.6584 50.1718 69.6748C50.1718 68.8368 49.6661 68.0817 48.8912 67.7626L48.7621 67.7094V53.7076C48.7621 52.6792 48.0072 51.8065 46.9906 51.6572C45.1217 51.3825 43.6506 51.1758 42.58 51.0375C41.5449 50.9038 40.8085 50.8233 40.4695 50.8233C39.9473 50.8233 39.3693 51.0679 38.8557 51.3317C38.2911 51.6216 37.6093 52.0415 36.8192 52.5777L36.8156 52.5802L36.812 52.5826C35.2924 53.6325 34.1668 54.5672 33.6064 55.3727L33.5693 55.4261L33.5391 55.4837C33.1605 56.2066 32.8894 57.1885 32.6892 58.361L32.6874 58.3713L32.6859 58.3816C32.5113 59.5456 32.4256 60.8001 32.4256 62.1427C32.4256 64.2573 32.7433 66.099 33.4288 67.6257C34.0944 69.1083 34.9904 70.2866 36.1516 71.0829ZM41.0786 55.4931L41.091 55.4953L41.1035 55.4971C41.8046 55.6023 42.4075 55.7171 42.9158 55.8401V65.8123C41.9955 66.2662 41.2852 66.5996 40.7776 66.8175C40.5222 66.9271 40.3324 67.0014 40.2004 67.0464L40.1705 67.0564L40.1545 67.0475C40.068 66.9981 39.9375 66.9016 39.7638 66.7294C39.4945 66.437 39.1862 65.9065 38.8809 65.045C38.6236 64.2435 38.4792 63.189 38.4792 61.8524C38.4792 59.0978 38.6053 57.2711 38.8245 56.287C38.9477 55.7978 39.0789 55.5068 39.1832 55.3522C39.2045 55.3205 39.2217 55.2988 39.2343 55.2844C39.483 55.2705 40.0597 55.3148 41.0786 55.4931ZM37.8988 65.3768C38.2305 66.3166 38.6036 67.0077 39.0183 67.45C39.4605 67.8922 39.8475 68.1134 40.1792 68.1134C40.4559 68.1134 41.5223 67.6556 43.3783 66.74C43.7304 66.5663 43.9524 66.2068 43.9524 65.8142V55.8092C43.9524 55.3584 43.6617 54.9565 43.224 54.8484C42.6642 54.7102 42.0086 54.5847 41.2573 54.472C40.1516 54.2785 39.4053 54.2094 39.0183 54.2647C38.4931 54.3476 38.0923 54.9419 37.8158 56.0476C37.5671 57.1533 37.4427 59.0882 37.4427 61.8524C37.4427 63.2622 37.5947 64.437 37.8988 65.3768ZM33.4622 62.1427C33.4622 60.8435 33.5451 59.6411 33.711 58.5354C33.9045 57.4021 34.1533 56.5452 34.4573 55.9647C34.8996 55.3289 35.8809 54.4858 37.4012 53.4355C38.9492 52.3851 39.9719 51.8599 40.4695 51.8599C40.983 51.8599 43.1065 52.1341 46.8399 52.6827C47.3481 52.7574 47.7255 53.1939 47.7255 53.7076V67.7094C47.7255 68.1295 47.979 68.508 48.3674 68.6679L48.4966 68.7211C48.883 68.8802 49.1352 69.2569 49.1352 69.6748C49.1352 70.1655 48.789 70.5887 48.3077 70.6844C46.6423 71.0159 45.7019 71.1816 45.4865 71.1816C45.3759 71.1816 45.1133 70.9881 44.6987 70.6011C44.2841 70.2141 44.0767 69.9516 44.0767 69.8133C44.0767 69.1712 43.3118 68.8003 42.8043 69.1937C42.569 69.3761 42.3021 69.5826 42.0036 69.8133C40.7873 70.7255 40.0963 71.1816 39.9304 71.1816C38.7971 71.1816 37.7329 70.8637 36.7378 70.228C35.7703 69.5646 34.9825 68.5556 34.3744 67.2012C33.7663 65.8467 33.4622 64.1606 33.4622 62.1427ZM39.2554 55.2627C39.2582 55.2608 39.2596 55.2595 39.2596 55.2595L39.2582 55.2605L39.2554 55.2627ZM39.1882 45.2614C39.8927 45.1695 40.6111 45.1221 41.3402 45.1221C42.0693 45.1221 42.7876 45.1695 43.4922 45.2614C43.776 45.2984 43.9761 45.5585 43.9391 45.8424C43.9021 46.1262 43.6419 46.3263 43.3581 46.2893C42.6979 46.2031 42.0244 46.1587 41.3402 46.1587C40.656 46.1587 39.9825 46.2031 39.3223 46.2893C39.0384 46.3263 38.7783 46.1262 38.7413 45.8424C38.7043 45.5585 38.9044 45.2984 39.1882 45.2614ZM35.7084 46.6532C35.8181 46.9176 35.6926 47.2208 35.4282 47.3305C34.1728 47.851 33.0008 48.5325 31.9378 49.3494C31.7109 49.5238 31.3855 49.4812 31.2111 49.2542C31.0366 49.0273 31.0792 48.7019 31.3062 48.5275C32.4402 47.6561 33.6909 46.9287 35.0311 46.373C35.2955 46.2633 35.5988 46.3888 35.7084 46.6532ZM46.972 46.6532C47.0816 46.3888 47.3849 46.2633 47.6493 46.373C48.9895 46.9287 50.2402 47.6561 51.3742 48.5275C51.6011 48.7019 51.6437 49.0273 51.4693 49.2542C51.2949 49.4812 50.9695 49.5238 50.7426 49.3494C49.6796 48.5325 48.5076 47.851 47.2522 47.3305C46.9878 47.2208 46.8623 46.9176 46.972 46.6532ZM28.9908 51.4745C29.2177 51.6489 29.2603 51.9743 29.0859 52.2013C28.2691 53.2643 27.5876 54.4363 27.067 55.6917C26.9573 55.9561 26.6541 56.0815 26.3897 55.9719C26.1253 55.8622 25.9998 55.559 26.1095 55.2946C26.6652 53.9544 27.3926 52.7036 28.264 51.5697C28.4384 51.3427 28.7638 51.3001 28.9908 51.4745ZM53.6896 51.4745C53.9166 51.3001 54.242 51.3427 54.4164 51.5697C55.2878 52.7036 56.0151 53.9544 56.5709 55.2946C56.6805 55.559 56.5551 55.8622 56.2907 55.9719C56.0263 56.0815 55.723 55.9561 55.6134 55.6917C55.0928 54.4363 54.4113 53.2643 53.5945 52.2013C53.4201 51.9743 53.4627 51.6489 53.6896 51.4745ZM25.5789 59.0048C25.8627 59.0418 26.0628 59.3019 26.0258 59.5858C25.9397 60.246 25.8952 60.9195 25.8952 61.6037C25.8952 62.2878 25.9397 62.9614 26.0258 63.6216C26.0628 63.9054 25.8627 64.1655 25.5789 64.2025C25.2951 64.2396 25.035 64.0395 24.9979 63.7557C24.906 63.0511 24.8586 62.3328 24.8586 61.6037C24.8586 60.8745 24.906 60.1562 24.9979 59.4517C25.035 59.1678 25.2951 58.9678 25.5789 59.0048ZM57.1015 59.0048C57.3853 58.9678 57.6454 59.1678 57.6825 59.4517C57.7744 60.1562 57.8217 60.8745 57.8217 61.6037C57.8217 62.3328 57.7744 63.0511 57.6825 63.7557C57.6454 64.0395 57.3853 64.2396 57.1015 64.2025C56.8176 64.1655 56.6176 63.9054 56.6546 63.6216C56.7407 62.9614 56.7852 62.2878 56.7852 61.6037C56.7852 60.9195 56.7407 60.246 56.6546 59.5858C56.6176 59.3019 56.8176 59.0418 57.1015 59.0048ZM26.3897 67.2355C26.6541 67.1258 26.9573 67.2513 27.067 67.5157C27.5876 68.771 28.2691 69.9431 29.0859 71.006C29.2603 71.233 29.2177 71.5584 28.9908 71.7328C28.7638 71.9072 28.4384 71.8646 28.264 71.6376C27.3926 70.5037 26.6652 69.2529 26.1095 67.9127C25.9998 67.6483 26.1253 67.3451 26.3897 67.2355ZM56.2907 67.2355C56.5551 67.3451 56.6805 67.6483 56.5709 67.9127C56.0151 69.2529 55.2878 70.5037 54.4164 71.6376C54.242 71.8646 53.9166 71.9072 53.6896 71.7328C53.4627 71.5584 53.4201 71.233 53.5945 71.006C54.4113 69.9431 55.0928 68.771 55.6134 67.5157C55.723 67.2513 56.0263 67.1258 56.2907 67.2355ZM31.2111 73.9531C31.3855 73.7261 31.7109 73.6835 31.9378 73.8579C33.0008 74.6748 34.1728 75.3563 35.4282 75.8769C35.6926 75.9865 35.8181 76.2897 35.7084 76.5542C35.5988 76.8186 35.2955 76.944 35.0311 76.8344C33.6909 76.2786 32.4402 75.5513 31.3062 74.6799C31.0792 74.5054 31.0366 74.1801 31.2111 73.9531ZM51.4693 73.9531C51.6437 74.1801 51.6011 74.5054 51.3742 74.6799C50.2402 75.5513 48.9895 76.2786 47.6493 76.8344C47.3849 76.944 47.0816 76.8186 46.972 76.5542C46.8623 76.2897 46.9878 75.9865 47.2522 75.8769C48.5076 75.3563 49.6796 74.6748 50.7426 73.8579C50.9695 73.6835 51.2949 73.7261 51.4693 73.9531ZM38.7413 77.365C38.7783 77.0811 39.0384 76.881 39.3223 76.9181C39.9825 77.0042 40.656 77.0486 41.3402 77.0486C42.0244 77.0486 42.6979 77.0042 43.3581 76.9181C43.6419 76.881 43.902 77.0811 43.9391 77.365C43.9761 77.6488 43.776 77.9089 43.4922 77.9459C42.7876 78.0378 42.0693 78.0852 41.3402 78.0852C40.6111 78.0852 39.8927 78.0378 39.1882 77.9459C38.9044 77.9089 38.7043 77.6488 38.7413 77.365Z" fill="#9DCCF7"/>
</svg>
