<svg width="57" height="57" viewBox="0 0 57 57" fill="none" xmlns="http://www.w3.org/2000/svg">
<path fill-rule="evenodd" clip-rule="evenodd" d="M54.0232 32.7617C55.4199 31.3848 56.4004 29.875 56.4004 28.2002C56.4004 26.5254 55.4199 25.0156 54.0232 23.6387C53.1873 22.8164 52.2126 22.0293 51.3542 21.2305C50.6685 20.5928 50.0508 19.9668 49.7617 19.2695C49.4587 18.541 49.4387 17.6377 49.4644 16.6826C49.4956 15.5039 49.623 14.2598 49.6316 13.0986C49.6484 11.1406 49.283 9.4043 48.1411 8.25879C46.9966 7.11719 45.2598 6.75195 43.3018 6.76855C42.1401 6.78027 40.8962 6.90527 39.7205 6.93555C38.7656 6.96191 37.8589 6.94141 37.1309 6.63867C36.4338 6.34961 35.8076 5.73145 35.1702 5.0459C34.5491 4.37891 33.9351 3.6416 33.3064 2.95508C33.1262 2.75781 32.9448 2.56543 32.7617 2.37988C31.3848 0.980469 29.8748 0 28.2002 0C27.2607 0 26.3728 0.308594 25.5315 0.826172C24.873 1.23145 24.2429 1.76562 23.6384 2.37988C23.1594 2.86523 22.6919 3.39941 22.2268 3.93066C21.8943 4.31055 21.5632 4.68848 21.2302 5.0459C20.5928 5.73145 19.9636 6.34961 19.2695 6.63867C18.5413 6.94141 17.6348 6.96191 16.6826 6.93555C16.1453 6.92188 15.5942 6.88867 15.0437 6.85547C14.3867 6.81543 13.7305 6.77539 13.0984 6.76855C11.1406 6.75195 9.40088 7.11719 8.25928 8.25879C7.1145 9.4043 6.75195 11.1406 6.7688 13.0986C6.77734 14.2598 6.90479 15.5039 6.93604 16.6826C6.96143 17.6377 6.94165 18.541 6.63843 19.2725C6.34961 19.9668 5.73193 20.5928 5.04614 21.2305C4.68237 21.5703 4.29712 21.9082 3.90991 22.2471C3.38672 22.7051 2.86035 23.166 2.37988 23.6387C0.983154 25.0156 0 26.5254 0 28.2002C0 29.875 0.983154 31.3848 2.37988 32.7617C2.86035 33.2344 3.38672 33.6953 3.90991 34.1533C4.29712 34.4922 4.68237 34.8301 5.04614 35.1699C5.40479 35.5039 5.74512 35.834 6.0293 36.1729C6.28833 36.4814 6.50073 36.7969 6.63843 37.1279C6.94165 37.8594 6.96143 38.7627 6.93604 39.7178C6.90479 40.8965 6.77734 42.1406 6.7688 43.3018C6.75195 45.2598 7.1145 46.9961 8.25928 48.1416C9.40088 49.2832 11.1406 49.6484 13.0984 49.6318C13.7336 49.625 14.3933 49.585 15.0535 49.5449C15.6008 49.5117 16.1484 49.4785 16.6826 49.4639C17.6348 49.4385 18.5413 49.459 19.2695 49.7617C19.9636 50.0508 20.5928 50.6689 21.2302 51.3545C22.0291 52.2129 22.8169 53.1875 23.6384 54.0205C25.0154 55.4199 26.5256 56.4004 28.2002 56.4004C29.8748 56.4004 31.3848 55.4199 32.7617 54.0205C33.2407 53.5352 33.708 53.001 34.1726 52.4707C34.5054 52.0908 34.8367 51.7129 35.1702 51.3545C35.8076 50.6689 36.4338 50.0508 37.1309 49.7617C37.4421 49.6318 37.7861 49.5537 38.1526 49.5098C38.6431 49.4502 39.1738 49.4492 39.7205 49.4639C40.2222 49.4775 40.7363 49.5078 41.2512 49.5391C41.9429 49.5811 42.6357 49.625 43.3018 49.6318C45.2598 49.6484 46.9966 49.2832 48.1411 48.1416C49.283 46.9961 49.6484 45.2598 49.6316 43.3018C49.627 42.6602 49.5859 41.9932 49.5447 41.3262C49.5115 40.7861 49.4783 40.2451 49.4644 39.7178C49.4387 38.7627 49.4587 37.8594 49.7617 37.1309C50.0508 36.4336 50.6685 35.8076 51.3542 35.1699C51.7148 34.834 52.0959 34.5 52.4788 34.165C53.0071 33.7031 53.5386 33.2383 54.0232 32.7617ZM52.9834 26.7324C53.3176 27.1943 53.5669 27.668 53.5669 28.2002C53.5669 28.7324 53.3176 29.2061 52.9834 29.668C52.5186 30.3086 51.884 30.9062 51.2209 31.498L50.7927 31.8789C49.2739 33.2295 47.7498 34.583 47.1438 36.043C46.5061 37.585 46.6208 39.6895 46.7334 41.752L46.7585 42.2139C46.8066 43.1064 46.835 43.9766 46.7161 44.75C46.6338 45.291 46.4893 45.7842 46.1379 46.1348C45.7839 46.4893 45.2908 46.6338 44.7498 46.7158C43.9761 46.835 43.1064 46.8066 42.2139 46.7588L41.7483 46.7334C39.6863 46.6211 37.5845 46.5059 36.0457 47.1436C34.5771 47.752 33.2185 49.2832 31.8643 50.8086L31.498 51.2207C30.906 51.8838 30.3081 52.5186 29.6677 52.9834C29.2061 53.3174 28.7329 53.5674 28.2002 53.5674C27.6704 53.5674 27.1943 53.3174 26.7324 52.9834C26.0923 52.5186 25.4944 51.8838 24.9021 51.2207L24.5366 50.8096C23.1826 49.2832 21.8235 47.752 20.3547 47.1436C18.7 46.458 16.3936 46.6426 14.1865 46.7588C13.2939 46.8066 12.4241 46.835 11.6506 46.7158C11.1067 46.6338 10.6165 46.4893 10.2625 46.1348C9.9082 45.7842 9.7666 45.291 9.68433 44.75C9.61475 44.2969 9.59546 43.8105 9.60059 43.3057C9.60425 42.9492 9.62012 42.583 9.63892 42.2139L9.66333 41.7725C9.77856 39.7031 9.89648 37.5898 9.25659 36.0459C8.59351 34.4453 6.83398 32.9746 5.17944 31.498C4.51636 30.9062 3.88159 30.3086 3.41699 29.668C3.08276 29.2061 2.83325 28.7324 2.83325 28.2002C2.83325 27.8193 2.96094 27.4688 3.15601 27.1309C3.23364 26.9961 3.32178 26.8643 3.41699 26.7324C3.57056 26.5205 3.74292 26.3135 3.92871 26.1094C4.30444 25.6973 4.7356 25.2988 5.17944 24.9023L5.5896 24.5371C7.11646 23.1826 8.64819 21.8232 9.25659 20.3545C9.94214 18.7002 9.75806 16.3936 9.63892 14.1865C9.59375 13.2939 9.56543 12.4238 9.68433 11.6504C9.7666 11.1094 9.9082 10.6162 10.2625 10.2656C10.6165 9.91113 11.1067 9.7666 11.6506 9.68457C12.4241 9.56543 13.2939 9.59375 14.1865 9.6416L14.6521 9.66699C16.7136 9.7793 18.8159 9.89453 20.3547 9.25684C21.8235 8.64844 23.1826 7.11719 24.5366 5.59082L24.9021 5.17969C25.4944 4.5166 26.0923 3.88184 26.7324 3.41699C27.1943 3.08301 27.6704 2.83301 28.2002 2.83301C28.7329 2.83301 29.2061 3.08301 29.6677 3.41699C30.3081 3.88184 30.906 4.5166 31.498 5.17969L31.8643 5.5918C33.2185 7.11719 34.5771 8.64844 36.0457 9.25684C37.7004 9.94238 40.0066 9.75781 42.2139 9.6416C42.5188 9.625 42.821 9.61133 43.1177 9.60449C43.6895 9.5918 44.2405 9.60645 44.7498 9.68457C45.2908 9.7666 45.7839 9.91113 46.1379 10.2656C46.4893 10.6162 46.6338 11.1094 46.7161 11.6504C46.7866 12.1084 46.8052 12.6006 46.7988 13.1113C46.7944 13.4629 46.7781 13.8232 46.7585 14.1865C46.6423 16.3936 46.4583 18.7002 47.1438 20.3574C47.7498 21.8174 49.2739 23.1709 50.7927 24.5215L51.2209 24.9023C51.884 25.4941 52.5186 26.0918 52.9834 26.7324ZM22.6472 20.2881V17.5H41.0884V30.2236H39.7295C38.9011 30.2236 38.2295 30.8955 38.2295 31.7236C38.2295 31.8457 38.2439 31.9639 38.2712 32.0771C38.4302 32.7344 39.0227 33.2236 39.7295 33.2236H41.1589C41.9358 33.2236 42.6809 32.915 43.2305 32.3652C43.7798 31.8164 44.0884 31.0713 44.0884 30.2939V17.4297C44.0884 16.6523 43.7798 15.9072 43.2305 15.3584C42.6809 14.8086 41.9358 14.5 41.1589 14.5H22.5767C21.7998 14.5 21.0547 14.8086 20.5051 15.3584C20.2698 15.5938 20.0786 15.8652 19.937 16.1592C19.748 16.5518 19.6472 16.9854 19.6472 17.4297V20.2881C19.6472 21.1162 20.3188 21.7881 21.1472 21.7881C21.627 21.7881 22.054 21.5635 22.3286 21.2129C22.4397 21.0713 22.5256 20.9092 22.5803 20.7334C22.6238 20.5928 22.6472 20.4434 22.6472 20.2881ZM15.5 38.7998V36.0127V32.5098H33.9412V36.0127V38.7998H15.5ZM33.9412 29.5098H15.5V27.4365V26.0771H33.9412V27.4365V29.5098ZM12.5 26.0059V27.4365V31.0098V36.0127V38.8711C12.5 40.4883 13.8115 41.7998 15.4294 41.7998H34.0117C35.6296 41.7998 36.9412 40.4883 36.9412 38.8711V36.0127V31.0098V27.4365V26.0059C36.9412 24.3887 35.6296 23.0771 34.0117 23.0771H15.4294C13.8115 23.0771 12.5 24.3887 12.5 26.0059ZM17.5029 35.2979C17.5029 34.4697 18.1746 33.7979 19.0029 33.7979H24.7207C25.5491 33.7979 26.2207 34.4697 26.2207 35.2979C26.2207 36.126 25.5491 36.7979 24.7207 36.7979H19.0029C18.1746 36.7979 17.5029 36.126 17.5029 35.2979ZM27.5088 35.2979C27.5088 35.041 27.5732 34.7998 27.6868 34.5889C27.9399 34.1182 28.437 33.7979 29.0088 33.7979H30.4382C31.2666 33.7979 31.9382 34.4697 31.9382 35.2979C31.9382 35.6162 31.8389 35.9121 31.6694 36.1553C31.3984 36.5439 30.948 36.7979 30.4382 36.7979H29.0088C28.1804 36.7979 27.5088 36.126 27.5088 35.2979Z" fill="#2C4FA9"/>
</svg>
