<svg width="79" height="91" viewBox="0 0 79 91" fill="none" xmlns="http://www.w3.org/2000/svg">
<path fill-rule="evenodd" clip-rule="evenodd" d="M9.875 0C4.42119 0 0 4.37096 0 9.7628V81.2372C0 86.6291 4.42119 91 9.875 91H69.125C74.5788 91 79 86.629 79 81.2372V9.7628C79 4.37095 74.5788 0 69.125 0H9.875ZM11.9859 5.01574C8.16823 5.01574 5.07339 8.07541 5.07339 11.8497V36.1582C5.07339 39.9325 8.16823 42.9921 11.9859 42.9921H30.7756C34.5932 42.9921 37.6881 39.9324 37.6881 36.1582V11.8497C37.6881 8.0754 34.5932 5.01574 30.7756 5.01574H11.9859ZM21.7431 25.7953C25.7459 25.7953 28.9908 22.5872 28.9908 18.6299C28.9908 14.6726 25.7459 11.4646 21.7431 11.4646C17.7403 11.4646 14.4954 14.6726 14.4954 18.6299C14.4954 22.5872 17.7403 25.7953 21.7431 25.7953ZM21.7431 27.2283C28.5479 27.2283 34.0642 32.682 34.0642 39.4094H9.42202C9.42202 32.682 14.9384 27.2283 21.7431 27.2283ZM71.0275 7.88189H42.0367V14.3307H71.0275V7.88189ZM42.0367 26.5118H71.0275V32.9606H42.0367V26.5118ZM63.7798 17.9134H42.0367V22.9291H63.7798V17.9134ZM42.0367 36.5433H63.7798V41.5591H42.0367V36.5433ZM73.9266 48.7244H5.07339V78.8905C5.07339 83.204 8.61034 86.7008 12.9734 86.7008H66.0266C70.3897 86.7008 73.9266 83.204 73.9266 78.8905V48.7244Z" fill="#9DCCF7"/>
</svg>
