<svg width="79" height="91" viewBox="0 0 79 91" fill="none" xmlns="http://www.w3.org/2000/svg">
<path fill-rule="evenodd" clip-rule="evenodd" d="M0 9.76282C0 4.37097 4.42119 0 9.875 0H69.125C74.5788 0 79 4.37097 79 9.76282V81.2373C79 86.6292 74.5788 91 69.125 91H9.875C4.42119 91 0 86.6292 0 81.2373V9.76282ZM5 12C5 8.13403 8.13401 5 12 5H67C70.866 5 74 8.13403 74 12V79C74 82.866 70.866 86 67 86H12C8.13401 86 5 82.866 5 79V12ZM10.708 29.368V40.78L15.856 41.032L16.036 39.772L13.48 39.016V28.792L10.672 26.9561L13.48 25.3361V14.536L16.036 13.816L15.856 12.52L10.708 12.772V24.76L8.188 26.452V27.676L10.708 29.368ZM21.4776 36.496C22.3416 37.048 23.2656 37.324 24.2496 37.324C24.3936 37.324 24.9936 36.928 26.0496 36.136C27.1056 35.3199 27.7056 34.8521 27.8496 34.7321V36.136C27.8496 36.256 28.0296 36.484 28.3896 36.8199C28.7496 37.156 28.9776 37.324 29.0736 37.324C29.2896 37.324 30.3456 37.132 32.2416 36.748V35.416L31.0176 34.912V21.376C27.2976 20.824 25.1976 20.548 24.7176 20.548C24.2856 20.548 23.3976 21.004 22.0536 21.916C20.7336 22.828 19.8816 23.5601 19.4976 24.1121C19.2336 24.616 19.0176 25.36 18.8496 26.344C18.7056 27.304 18.6336 28.348 18.6336 29.476C18.6336 31.228 18.8976 32.692 19.4256 33.868C19.9536 35.0439 20.6376 35.92 21.4776 36.496ZM27.7416 33.22C25.8216 34.1801 24.7296 34.66 24.4656 34.66C24.1776 34.66 23.8416 34.468 23.4576 34.084C23.0976 33.7 22.7736 33.1 22.4856 32.2841C22.2216 31.468 22.0896 30.448 22.0896 29.224C22.0896 26.824 22.1976 25.144 22.4136 24.184C22.6536 23.224 23.0016 22.708 23.4576 22.636C23.7936 22.588 24.4416 22.6479 25.4016 22.816C26.3616 22.96 27.1416 23.1281 27.7416 23.3199V33.22ZM37.1463 39.016L34.5903 39.772L34.7703 41.032L39.9183 40.78V29.368L42.4383 27.676V26.452L39.9183 24.76V12.772L34.7703 12.52L34.5903 13.816L37.1463 14.536V25.3361L39.9543 26.9561L37.1463 28.792V39.016ZM46 11H70V14H46V11ZM70 20H46V23H70V20ZM46 29H70V32H46V29ZM70 38H46V41H70V38ZM9 47H70V50H9V47ZM70 56H9V59H70V56ZM9 65H70V68H9V65ZM70 74H9V77H70V74Z" fill="#9DCCF7"/>
</svg>
