<svg width="30" height="29" viewBox="0 0 30 29" fill="none" xmlns="http://www.w3.org/2000/svg">
<path d="M14.9914 0.333008C12.1895 0.333008 9.4505 1.16387 7.1208 2.72052C4.79111 4.27717 2.97533 6.48971 1.90309 9.07833C0.830845 11.6669 0.550298 14.5154 1.09692 17.2635C1.64355 20.0115 2.99279 22.5358 4.97403 24.517C6.95528 26.4983 9.47954 27.8475 12.2276 28.3941C14.9757 28.9408 17.8241 28.6602 20.4127 27.588C23.0013 26.5157 25.2139 24.6999 26.7705 22.3703C28.3272 20.0406 29.158 17.3016 29.158 14.4997C29.158 12.6393 28.7916 10.7971 28.0797 9.07833C27.3677 7.35955 26.3242 5.79782 25.0087 4.48233C23.6932 3.16683 22.1315 2.12332 20.4127 1.41138C18.6939 0.69944 16.8518 0.333008 14.9914 0.333008ZM19.4964 21.7983C19.4435 21.9307 19.3629 22.0502 19.2601 22.1488C19.1572 22.2474 19.0344 22.3229 18.8999 22.3701C18.7655 22.4174 18.6224 22.4353 18.4805 22.4227C18.3385 22.4101 18.2009 22.3672 18.0769 22.297L14.2306 19.3078L11.7628 21.5858C11.7055 21.6281 11.6385 21.6554 11.568 21.665C11.4974 21.6747 11.4256 21.6664 11.359 21.6411L11.8322 17.4067L11.8464 17.4194L11.8563 17.3358C11.8563 17.3358 18.7767 11.0345 19.0586 10.7668C19.3448 10.499 19.2499 10.4409 19.2499 10.4409C19.2669 10.1151 18.7385 10.4409 18.7385 10.4409L9.56838 16.3399L5.75046 15.0394C5.75046 15.0394 5.16396 14.8298 5.10871 14.3665C5.05063 13.9075 5.76888 13.6582 5.76888 13.6582L20.9513 7.62601C20.9513 7.62601 22.1994 7.07067 22.1994 7.99151L19.4964 21.7983Z" fill="#2C4FA9"/>
</svg>
