<svg width="57" height="57" viewBox="0 0 57 57" fill="none" xmlns="http://www.w3.org/2000/svg">
<path fill-rule="evenodd" clip-rule="evenodd" d="M54.0232 32.7617C55.4199 31.3848 56.4004 29.875 56.4004 28.2002C56.4004 26.5254 55.4199 25.0156 54.0232 23.6387C53.5386 23.1621 53.0071 22.6973 52.4788 22.2354C52.0959 21.9004 51.7148 21.5664 51.3542 21.2305C50.8413 20.7539 50.3665 20.2832 50.0386 19.7842C49.9282 19.6162 49.8345 19.4453 49.7617 19.2695C49.4587 18.541 49.4387 17.6377 49.4644 16.6826C49.4783 16.1553 49.5115 15.6143 49.5447 15.0742C49.5859 14.4072 49.627 13.7402 49.6316 13.0986C49.6484 11.1406 49.283 9.4043 48.1411 8.25879C46.9966 7.11719 45.2598 6.75195 43.3018 6.76855C42.6692 6.77539 42.0125 6.81543 41.3555 6.85547C40.8059 6.88867 40.2561 6.92188 39.7205 6.93555C39.3193 6.94629 38.9268 6.94922 38.5522 6.92578C38.0354 6.89453 37.553 6.81445 37.1309 6.63867C36.4338 6.34961 35.8076 5.73145 35.1702 5.0459C34.8367 4.6875 34.5054 4.30957 34.1726 3.92969C33.708 3.39941 33.2407 2.86523 32.7617 2.37988C31.3848 0.980469 29.8748 0 28.2002 0C26.5256 0 25.0154 0.980469 23.6384 2.37988C23.1594 2.86523 22.6919 3.39941 22.2268 3.93066C21.8943 4.31055 21.5632 4.68848 21.2302 5.0459C20.5928 5.73145 19.9636 6.34961 19.2695 6.63867C18.5413 6.94141 17.6348 6.96191 16.6826 6.93555C16.1453 6.92188 15.5942 6.88867 15.0437 6.85547C14.3867 6.81543 13.7305 6.77539 13.0984 6.76855C11.1406 6.75195 9.40088 7.11719 8.25928 8.25879C7.1145 9.4043 6.75195 11.1406 6.7688 13.0986C6.77344 13.7402 6.81445 14.4072 6.85571 15.0742C6.88892 15.6143 6.92212 16.1553 6.93604 16.6826C6.96143 17.6377 6.94165 18.541 6.63843 19.2725C6.45557 19.7119 6.14062 20.124 5.76001 20.5303C5.53979 20.7646 5.29761 20.9971 5.04614 21.2305C4.68237 21.5703 4.29712 21.9082 3.90991 22.2471C3.38672 22.7051 2.86035 23.166 2.37988 23.6387C0.983154 25.0156 0 26.5254 0 28.2002C0 29.875 0.983154 31.3848 2.37988 32.7617C2.86035 33.2344 3.38672 33.6953 3.90991 34.1533C4.29712 34.4922 4.68237 34.8301 5.04614 35.1699C5.73193 35.8076 6.34961 36.4336 6.63843 37.1279C6.82153 37.5693 6.90137 38.0732 6.93018 38.6143C6.94897 38.9688 6.94604 39.3389 6.93604 39.7178C6.90479 40.8965 6.77734 42.1406 6.7688 43.3018C6.75195 45.2598 7.1145 46.9961 8.25928 48.1416C9.40088 49.2832 11.1406 49.6484 13.0984 49.6318C14.2603 49.6201 15.5039 49.4951 16.6826 49.4639C17.6348 49.4385 18.5413 49.459 19.2695 49.7617C19.9636 50.0508 20.5928 50.6689 21.2302 51.3545C21.7861 51.9521 22.3367 52.6055 22.8967 53.2285C23.1416 53.501 23.3884 53.7676 23.6384 54.0205C25.0154 55.4199 26.5256 56.4004 28.2002 56.4004C29.8748 56.4004 31.3848 55.4199 32.7617 54.0205C33.1917 53.585 33.6123 53.1104 34.0303 52.6338C34.4109 52.1992 34.7893 51.7637 35.1702 51.3545C35.8076 50.6689 36.4338 50.0508 37.1309 49.7617C37.8589 49.459 38.7656 49.4385 39.7205 49.4639C40.8962 49.4951 42.1401 49.6201 43.3018 49.6318C45.2598 49.6484 46.9966 49.2832 48.1411 48.1416C49.283 46.9961 49.6484 45.2598 49.6316 43.3018C49.627 42.6602 49.5859 41.9932 49.5447 41.3262C49.5115 40.7861 49.4783 40.2451 49.4644 39.7178C49.4387 38.7627 49.4587 37.8594 49.7617 37.1309C50.0508 36.4336 50.6685 35.8076 51.3542 35.1699C52.2126 34.3711 53.1873 33.584 54.0232 32.7617ZM52.9834 26.7324C53.3176 27.1943 53.5669 27.668 53.5669 28.2002C53.5669 28.7324 53.3176 29.2061 52.9834 29.668C52.7512 29.9883 52.4766 30.2979 52.177 30.6006C51.8772 30.9043 51.5527 31.2021 51.2209 31.498L50.7927 31.8789C49.2739 33.2295 47.7498 34.583 47.1438 36.043C46.5061 37.585 46.6208 39.6895 46.7334 41.752L46.7585 42.2139C46.7871 42.7432 46.8086 43.2656 46.7966 43.7637C46.7883 44.1055 46.7644 44.4355 46.7161 44.75C46.6338 45.291 46.4893 45.7842 46.1379 46.1348C45.7839 46.4893 45.2908 46.6338 44.7498 46.7158C43.9761 46.835 43.1064 46.8066 42.2139 46.7588L41.7483 46.7334C39.6863 46.6211 37.5845 46.5059 36.0457 47.1436C34.5771 47.752 33.2185 49.2832 31.8643 50.8086L31.498 51.2207C31.1816 51.5752 30.8638 51.9209 30.5386 52.2373C30.2551 52.5137 29.9661 52.7666 29.6677 52.9834C29.4324 53.1533 29.1941 53.3018 28.9465 53.4062C28.7083 53.5068 28.4614 53.5674 28.2002 53.5674C27.6704 53.5674 27.1943 53.3174 26.7324 52.9834C26.4539 52.7812 26.1831 52.5469 25.9175 52.291C25.5728 51.96 25.2366 51.5947 24.9021 51.2207L24.5366 50.8096C23.1826 49.2832 21.8235 47.752 20.3547 47.1436C18.7 46.458 16.3936 46.6426 14.1865 46.7588C13.2939 46.8066 12.4241 46.835 11.6506 46.7158C11.1067 46.6338 10.6165 46.4893 10.2625 46.1348C9.9082 45.7842 9.7666 45.291 9.68433 44.75C9.56543 43.9766 9.59375 43.1064 9.63892 42.2139C9.75806 40.0068 9.94214 37.7002 9.25659 36.0459C8.64819 34.5771 7.11646 33.2178 5.5896 31.8633L5.17944 31.498C4.51636 30.9062 3.88159 30.3086 3.41699 29.668C3.08276 29.2061 2.83325 28.7324 2.83325 28.2002C2.83325 27.668 3.08276 27.1943 3.41699 26.7324C3.88159 26.0918 4.51636 25.4941 5.17944 24.9023L5.5896 24.5371C7.11646 23.1826 8.64819 21.8232 9.25659 20.3545C9.89648 18.8105 9.77856 16.6973 9.66333 14.6279L9.63892 14.1865C9.61182 13.6533 9.59106 13.1279 9.604 12.627C9.61255 12.2891 9.63647 11.9619 9.68433 11.6504C9.7666 11.1094 9.9082 10.6162 10.2625 10.2656C10.6165 9.91113 11.1067 9.7666 11.6506 9.68457C12.4241 9.56543 13.2939 9.59375 14.1865 9.6416C16.3936 9.75781 18.7 9.94238 20.3547 9.25684C21.9556 8.59375 23.426 6.83398 24.9021 5.17969C25.3193 4.71289 25.7393 4.25977 26.1748 3.87012C26.3577 3.70703 26.5432 3.55469 26.7324 3.41699C27.1943 3.08301 27.6704 2.83301 28.2002 2.83301C28.5015 2.83301 28.7837 2.91309 29.0554 3.04297C29.2642 3.14258 29.467 3.27148 29.6677 3.41699C30.3081 3.88184 30.906 4.5166 31.498 5.17969C32.9744 6.83398 34.4448 8.59375 36.0457 9.25684C37.5845 9.89453 39.6863 9.7793 41.7483 9.66699L42.2139 9.6416C43.1064 9.59375 43.9761 9.56543 44.7498 9.68457C45.2908 9.7666 45.7839 9.91113 46.1379 10.2656C46.4893 10.6162 46.6338 11.1094 46.7161 11.6504C46.7988 12.1885 46.8103 12.7734 46.7932 13.3809C46.7859 13.6465 46.7732 13.915 46.7585 14.1865C46.6423 16.3936 46.4583 18.7002 47.1438 20.3574C47.7498 21.8174 49.2739 23.1709 50.7927 24.5215L51.2209 24.9023C51.884 25.4941 52.5186 26.0918 52.9834 26.7324ZM28.7222 36.5049C28.5085 36.6504 28.2571 36.7275 28 36.7275C27.6553 36.7275 27.3245 36.5889 27.0808 36.3408C26.8369 36.0938 26.7 35.7588 26.7 35.4092C26.7 35.1484 26.7761 34.8936 26.9192 34.6768C27.062 34.46 27.2649 34.291 27.5024 34.1914C27.74 34.0918 28.0015 34.0654 28.2537 34.1162C28.5059 34.167 28.7375 34.293 28.9192 34.4766C29.1011 34.6611 29.2249 34.8965 29.2749 35.1523C29.3252 35.4072 29.2993 35.6729 29.2009 35.9131C29.1025 36.1543 28.936 36.3604 28.7222 36.5049ZM35.2222 36.5049C35.0085 36.6504 34.7571 36.7275 34.5 36.7275C34.1553 36.7275 33.8245 36.5889 33.5808 36.3408C33.3369 36.0938 33.2 35.7588 33.2 35.4092C33.2 35.1484 33.2761 34.8936 33.4192 34.6768C33.562 34.46 33.7649 34.291 34.0024 34.1914C34.24 34.0918 34.5015 34.0654 34.7537 34.1162C34.8628 34.1377 34.968 34.1738 35.0669 34.2227C35.1968 34.2871 35.3162 34.3721 35.4192 34.4766C35.6011 34.6611 35.7249 34.8965 35.7749 35.1523C35.8252 35.4072 35.7993 35.6729 35.7009 35.9131C35.6025 36.1543 35.436 36.3604 35.2222 36.5049ZM35.2222 31.2324C35.0085 31.377 34.7571 31.4541 34.5 31.4541C34.1553 31.4541 33.8245 31.3154 33.5808 31.0684C33.3369 30.8213 33.2 30.4863 33.2 30.1367C33.2 29.876 33.2761 29.6211 33.4192 29.4043C33.562 29.1875 33.7649 29.0186 34.0024 28.9189C34.24 28.8184 34.5015 28.793 34.7537 28.8438C35.0059 28.8945 35.2375 29.0195 35.4192 29.2041C35.6011 29.3887 35.7249 29.623 35.7749 29.8789C35.8252 30.1348 35.7993 30.4004 35.7009 30.6406C35.6025 30.8818 35.436 31.0879 35.2222 31.2324ZM28.7222 31.2324C28.5085 31.377 28.2571 31.4541 28 31.4541C27.6553 31.4541 27.3245 31.3154 27.0808 31.0684C26.8369 30.8213 26.7 30.4863 26.7 30.1367C26.7 29.9941 26.7227 29.8535 26.7666 29.7207C26.803 29.6094 26.8542 29.5029 26.9192 29.4043C27.062 29.1875 27.2649 29.0186 27.5024 28.9189C27.74 28.8184 28.0015 28.793 28.2537 28.8438C28.5059 28.8945 28.7375 29.0195 28.9192 29.2041C29.1011 29.3887 29.2249 29.623 29.2749 29.8789C29.3252 30.1348 29.2993 30.4004 29.2009 30.6406C29.1025 30.8818 28.936 31.0879 28.7222 31.2324ZM35.8 15.6367H37.1001C38.1343 15.6367 39.1262 16.0527 39.8577 16.7949C40.5891 17.5361 41 18.542 41 19.5908V38.0459C41 39.0947 40.5891 40.1006 39.8577 40.8418C39.1262 41.583 38.1343 42 37.1001 42H18.8999C17.8657 42 16.8738 41.583 16.1423 40.8418C15.4109 40.1006 15 39.0947 15 38.0459V19.5908C15 18.542 15.4109 17.5361 16.1423 16.7949C16.8738 16.0527 17.8657 15.6367 18.8999 15.6367H20.2V14.3184C20.2 13.9688 20.3369 13.6328 20.5808 13.3857C20.8245 13.1387 21.1553 13 21.5 13C21.6643 13 21.8254 13.0312 21.9756 13.0908C22.1404 13.1572 22.2917 13.2568 22.4192 13.3857C22.5603 13.5283 22.6658 13.7012 22.7295 13.8896C22.7759 14.0264 22.8 14.1709 22.8 14.3184V15.6367H33.2V14.3184C33.2 13.9688 33.3369 13.6328 33.5808 13.3857C33.8245 13.1387 34.1553 13 34.5 13C34.8447 13 35.1755 13.1387 35.4192 13.3857C35.6631 13.6328 35.8 13.9688 35.8 14.3184V15.6367ZM38.0193 38.9775C38.2629 38.7305 38.3999 38.3955 38.3999 38.0459V26.1816H17.6001V38.0459C17.6001 38.3955 17.7371 38.7305 17.9807 38.9775C18.0874 39.0859 18.2104 39.1729 18.3442 39.2373C18.5164 39.3193 18.7058 39.3633 18.8999 39.3633H37.1001C37.2664 39.3633 37.4292 39.3311 37.5806 39.2705C37.7434 39.2051 37.8928 39.1055 38.0193 38.9775ZM17.6001 23.5459H38.3999V19.5908C38.3999 19.2412 38.2629 18.9062 38.0193 18.6592C37.7754 18.4111 37.4448 18.2725 37.1001 18.2725H35.8V19.5908C35.8 19.9404 35.6631 20.2754 35.4192 20.5234C35.1755 20.7705 34.8447 20.9092 34.5 20.9092C34.1553 20.9092 33.8245 20.7705 33.5808 20.5234C33.3369 20.2754 33.2 19.9404 33.2 19.5908V18.2725H22.8V19.5908C22.8 19.7979 22.752 20 22.6619 20.1826C22.6001 20.3076 22.5186 20.4229 22.4192 20.5234C22.1755 20.7705 21.8447 20.9092 21.5 20.9092C21.1553 20.9092 20.8245 20.7705 20.5808 20.5234C20.3369 20.2754 20.2 19.9404 20.2 19.5908V18.2725H18.8999C18.5552 18.2725 18.2246 18.4111 17.9807 18.6592C17.8884 18.7529 17.8113 18.8594 17.7512 18.9736C17.6528 19.1621 17.6001 19.374 17.6001 19.5908V23.5459ZM22.2222 31.2324C22.0085 31.377 21.7571 31.4541 21.5 31.4541C21.1553 31.4541 20.8245 31.3154 20.5808 31.0684C20.3369 30.8213 20.2 30.4863 20.2 30.1367C20.2 29.876 20.2761 29.6211 20.4192 29.4043C20.562 29.1875 20.7649 29.0186 21.0024 28.9189C21.24 28.8184 21.5015 28.793 21.7537 28.8438C22.0059 28.8945 22.2375 29.0195 22.4192 29.2041C22.6011 29.3887 22.7249 29.623 22.7749 29.8789C22.8252 30.1348 22.7993 30.4004 22.7009 30.6406C22.6025 30.8818 22.436 31.0879 22.2222 31.2324ZM22.2222 36.5049C22.0085 36.6504 21.7571 36.7275 21.5 36.7275C21.1553 36.7275 20.8245 36.5889 20.5808 36.3408C20.3369 36.0938 20.2 35.7588 20.2 35.4092C20.2 35.1484 20.2761 34.8936 20.4192 34.6768C20.562 34.46 20.7649 34.291 21.0024 34.1914C21.24 34.0918 21.5015 34.0654 21.7537 34.1162C21.8892 34.1436 22.0188 34.1924 22.1379 34.2607C22.2405 34.3193 22.3352 34.3916 22.4192 34.4766C22.6011 34.6611 22.7249 34.8965 22.7749 35.1523C22.8252 35.4072 22.7993 35.6729 22.7009 35.9131C22.646 36.0479 22.5698 36.1719 22.4761 36.2803C22.4019 36.3652 22.3167 36.4414 22.2222 36.5049Z" fill="#2C4FA9"/>
</svg>
