<svg width="58" height="58" viewBox="0 0 58 58" fill="none" xmlns="http://www.w3.org/2000/svg">
<path d="M57.2001 29C57.2001 30.6745 56.2198 32.1846 54.823 33.5616C53.9871 34.3833 53.0125 35.171 52.154 35.97C51.4683 36.6075 50.8506 37.2336 50.5616 37.9306C50.2585 38.6588 50.2386 39.5626 50.2641 40.5175C50.2953 41.6961 50.4228 42.94 50.4313 44.1016C50.4483 46.0595 50.0828 47.7963 48.941 48.941C47.7963 50.0828 46.0595 50.4483 44.1016 50.4313C42.94 50.42 41.6961 50.2953 40.5203 50.2641C39.5655 50.2386 38.6588 50.2585 37.9306 50.5616C37.2336 50.8506 36.6075 51.4683 35.97 52.154C35.171 53.0125 34.3833 53.9871 33.5616 54.8201C32.1846 56.2198 30.6745 57.2001 29 57.2001C27.3255 57.2001 25.8153 56.2198 24.4383 54.8201C23.6166 53.9871 22.829 53.0125 22.03 52.154C21.3925 51.4683 20.7635 50.8506 20.0693 50.5616C19.3411 50.2585 18.4345 50.2386 17.4825 50.2641C16.3038 50.2953 15.06 50.42 13.8983 50.4313C11.9405 50.4483 10.2008 50.0828 9.05897 48.941C7.9143 47.7963 7.55164 46.0595 7.56864 44.1016C7.57714 42.94 7.70464 41.6961 7.7358 40.5175C7.7613 39.5626 7.74147 38.6588 7.4383 37.9278C7.1493 37.2336 6.53164 36.6075 5.84597 35.97C4.9903 35.171 4.01564 34.3833 3.17981 33.5616C1.78297 32.1846 0.799805 30.6745 0.799805 29C0.799805 27.3255 1.78297 25.8153 3.17981 24.4383C4.01564 23.6166 4.9903 22.829 5.84597 22.03C6.53164 21.3925 7.1493 20.7663 7.4383 20.0721C7.74147 19.3411 7.7613 18.4373 7.7358 17.4825C7.70464 16.3038 7.57714 15.06 7.56864 13.8983C7.55164 11.9405 7.9143 10.2036 9.05897 9.05897C10.2008 7.91714 11.9405 7.55164 13.8983 7.56864C15.06 7.57997 16.3038 7.70464 17.4825 7.7358C18.4345 7.7613 19.3411 7.74147 20.0693 7.4383C20.7635 7.1493 21.3925 6.53164 22.03 5.84597C22.829 4.98747 23.6166 4.0128 24.4383 3.17981C25.8153 1.78014 27.3255 0.799805 29 0.799805C30.6745 0.799805 32.1846 1.78014 33.5616 3.17981C34.3833 4.0128 35.171 4.98747 35.97 5.84597C36.6075 6.53164 37.2336 7.1493 37.9306 7.4383C38.6588 7.74147 39.5655 7.7613 40.5203 7.7358C41.6961 7.70464 42.94 7.57997 44.1016 7.56864C46.0595 7.55164 47.7963 7.91714 48.941 9.05897C50.0828 10.2036 50.4483 11.9405 50.4313 13.8983C50.4228 15.06 50.2953 16.3038 50.2641 17.4825C50.2386 18.4373 50.2585 19.3411 50.5616 20.0693C50.8506 20.7663 51.4683 21.3925 52.154 22.03C53.0125 22.829 53.9871 23.6166 54.823 24.4383C56.2198 25.8153 57.2001 27.3255 57.2001 29ZM54.3668 29C54.3668 28.4673 54.1175 27.9941 53.7831 27.5323C53.3185 26.892 52.6838 26.2941 52.0208 25.702C50.369 24.2258 48.6066 22.7553 47.9436 21.1573C47.258 19.4998 47.4421 17.1935 47.5583 14.9863C47.6065 14.0938 47.6348 13.224 47.5158 12.4505C47.4336 11.9093 47.2891 11.4163 46.9378 11.065C46.5836 10.7108 46.0906 10.5663 45.5495 10.4841C44.776 10.3651 43.9061 10.3935 43.0136 10.4416C40.8065 10.5578 38.5001 10.742 36.8455 10.0563C35.2446 9.3933 33.7741 7.6338 32.298 5.97914C31.7058 5.31614 31.108 4.68147 30.4676 4.2168C30.0058 3.88247 29.5326 3.63314 29 3.63314C28.4701 3.63314 27.9941 3.88247 27.5323 4.2168C26.892 4.68147 26.2941 5.31614 25.702 5.97914C24.2258 7.6338 22.7553 9.3933 21.1545 10.0563C19.4998 10.742 17.1935 10.5578 14.9863 10.4416C14.0938 10.3935 13.224 10.3651 12.4505 10.4841C11.9065 10.5663 11.4163 10.7108 11.0621 11.065C10.708 11.4163 10.5663 11.9093 10.4841 12.4505C10.3651 13.224 10.3935 14.0938 10.4388 14.9863C10.5578 17.1935 10.742 19.4998 10.0563 21.1545C9.3933 22.7553 7.6338 24.2258 5.97914 25.702C5.31614 26.2941 4.68147 26.892 4.2168 27.5323C3.88247 27.9941 3.63314 28.4673 3.63314 29C3.63314 29.5326 3.88247 30.0058 4.2168 30.4676C4.68147 31.108 5.31614 31.7058 5.97914 32.298C7.6338 33.7741 9.3933 35.2446 10.0563 36.8455C10.742 38.5001 10.5578 40.8065 10.4388 43.0136C10.3935 43.9061 10.3651 44.776 10.4841 45.5495C10.5663 46.0906 10.708 46.5836 11.0621 46.935C11.4163 47.2891 11.9065 47.4336 12.4505 47.5158C13.224 47.6348 14.0938 47.6065 14.9863 47.5583C17.1935 47.4421 19.4998 47.258 21.1545 47.9436C22.7553 48.6066 24.2258 50.3661 25.702 52.0208C26.2941 52.6838 26.892 53.3185 27.5323 53.7831C27.9941 54.1175 28.4701 54.3668 29 54.3668C29.5326 54.3668 30.0058 54.1175 30.4676 53.7831C31.108 53.3185 31.7058 52.6838 32.298 52.0208C33.7741 50.3661 35.2446 48.6066 36.8455 47.9436C38.5001 47.258 40.8065 47.4421 43.0136 47.5583C43.9061 47.6065 44.776 47.6348 45.5495 47.5158C46.0906 47.4336 46.5836 47.2891 46.9378 46.935C47.2891 46.5836 47.4336 46.0906 47.5158 45.5495C47.6348 44.776 47.6065 43.9061 47.5583 43.0136C47.4421 40.8065 47.258 38.5001 47.9436 36.8426C48.6066 35.2446 50.369 33.7741 52.0208 32.298C52.6838 31.7058 53.3185 31.108 53.7831 30.4676C54.1175 30.0058 54.3668 29.5326 54.3668 29ZM24.529 24.0076C24.2618 24.2746 23.9447 24.4863 23.5957 24.6307C23.2467 24.7752 22.8727 24.8494 22.4951 24.8493C22.1174 24.8492 21.7434 24.7746 21.3945 24.63C21.0457 24.4853 20.7287 24.2734 20.4617 24.0062C20.1948 23.7391 19.983 23.4219 19.8386 23.073C19.6942 22.724 19.6199 22.35 19.6201 21.9723C19.6202 21.5946 19.6947 21.2207 19.8394 20.8718C19.984 20.5229 20.196 20.2059 20.4631 19.939C21.0027 19.3998 21.7343 19.0971 22.4971 19.0973C23.2598 19.0976 23.9912 19.4008 24.5304 19.9404C25.0695 20.4799 25.3723 21.2115 25.372 21.9743C25.3718 22.7371 25.0685 23.4685 24.529 24.0076ZM37.1968 18.8C37.464 18.5419 37.8218 18.3991 38.1933 18.4023C38.5647 18.4056 38.9201 18.5546 39.1827 18.8172C39.4454 19.0799 39.5944 19.4352 39.5976 19.8067C39.6008 20.1781 39.458 20.536 39.2 20.8031L20.8031 39.2C20.536 39.458 20.1781 39.6008 19.8067 39.5976C19.4352 39.5944 19.0799 39.4454 18.8172 39.1827C18.5546 38.9201 18.4056 38.5647 18.4023 38.1933C18.3991 37.8218 18.5419 37.464 18.8 37.1968L37.1968 18.8ZM33.471 33.9951C33.7381 33.7282 34.0552 33.5164 34.4042 33.372C34.7532 33.2276 35.1272 33.1534 35.5049 33.1535C35.8826 33.1536 36.2565 33.2281 36.6054 33.3728C36.9543 33.5174 37.2713 33.7294 37.5382 33.9966C37.8052 34.2637 38.0169 34.5808 38.1613 34.9298C38.3057 35.2788 38.38 35.6528 38.3799 36.0305C38.3797 36.4082 38.3052 36.7821 38.1606 37.131C38.0159 37.4799 37.804 37.7968 37.5368 38.0638C36.9973 38.603 36.2656 38.9057 35.5029 38.9054C34.7401 38.9052 34.0087 38.6019 33.4696 38.0624C32.9304 37.5228 32.6276 36.7912 32.6279 36.0285C32.6282 35.2657 32.9314 34.5343 33.471 33.9951Z" fill="#2C4FA9"/>
</svg>
