<svg width="45" height="45" viewBox="0 0 45 45" fill="none" xmlns="http://www.w3.org/2000/svg">
<path d="M22.6167 0.5C18.2655 0.5 14.012 1.79028 10.3942 4.20767C6.77628 6.62506 3.95649 10.061 2.29136 14.081C0.626231 18.1009 0.190558 22.5244 1.03943 26.792C1.88831 31.0596 3.9836 34.9796 7.06036 38.0563C10.1371 41.1331 14.0571 43.2284 18.3247 44.0773C22.5923 44.9261 27.0158 44.4905 31.0357 42.8253C35.0557 41.1602 38.4916 38.3404 40.909 34.7225C43.3264 31.1047 44.6167 26.8512 44.6167 22.5C44.6167 19.6109 44.0477 16.7501 42.9421 14.081C41.8364 11.4118 40.2159 8.98654 38.173 6.94365C36.1302 4.90076 33.7049 3.28025 31.0357 2.17465C28.3666 1.06905 25.5058 0.5 22.6167 0.5ZM29.6127 33.8344C29.5306 34.0399 29.4055 34.2255 29.2457 34.3787C29.0859 34.5318 28.8952 34.649 28.6864 34.7224C28.4776 34.7957 28.2555 34.8235 28.0351 34.804C27.8146 34.7844 27.6009 34.7178 27.4083 34.6088L21.4353 29.9668L17.6029 33.5044C17.5139 33.5701 17.4099 33.6123 17.3004 33.6273C17.1908 33.6423 17.0792 33.6296 16.9759 33.5902L17.7107 27.0144L17.7327 27.0342L17.7481 26.9044C17.7481 26.9044 28.4951 17.1188 28.9329 16.703C29.3773 16.2872 29.2299 16.197 29.2299 16.197C29.2563 15.691 28.4357 16.197 28.4357 16.197L14.1951 25.3578L8.26611 23.3382C8.26611 23.3382 7.35531 23.0126 7.26951 22.2932C7.17931 21.5804 8.29471 21.1932 8.29471 21.1932L31.8721 11.8256C31.8721 11.8256 33.8103 10.9632 33.8103 12.3932L29.6127 33.8344Z" fill="#9DCCF7"/>
</svg>
