<svg width="46" height="37" viewBox="0 0 46 37" fill="none" xmlns="http://www.w3.org/2000/svg">
<path d="M5.3333 36.1667C4.11871 36.1667 3.07859 35.7339 2.21292 34.8682C1.34725 34.0025 0.915158 32.9632 0.91663 31.75V5.25004C0.91663 4.03546 1.34946 2.99534 2.21513 2.12967C3.0808 1.264 4.12019 0.831906 5.3333 0.833378H40.6666C41.8812 0.833378 42.9213 1.26621 43.787 2.13188C44.6527 2.99754 45.0848 4.03693 45.0833 5.25004V31.75C45.0833 32.9646 44.6505 34.0048 43.7848 34.8704C42.9191 35.7361 41.8797 36.1682 40.6666 36.1667H5.3333ZM23 20.3219C23.184 20.3219 23.3776 20.2939 23.5808 20.238C23.7839 20.1821 23.9768 20.0996 24.1593 19.9907L39.7833 10.2188C40.0777 10.0348 40.2986 9.80436 40.4458 9.52759C40.593 9.25081 40.6666 8.94753 40.6666 8.61775C40.6666 7.88164 40.3538 7.32956 39.7281 6.9615C39.1024 6.59345 38.4583 6.61185 37.7958 7.01671L23 16.2917L8.20413 7.01671C7.54163 6.61185 6.89753 6.60302 6.27184 6.99021C5.64614 7.37741 5.3333 7.91992 5.3333 8.61775C5.3333 8.98581 5.40691 9.30822 5.55413 9.585C5.70135 9.86178 5.92219 10.073 6.21663 10.2188L21.8406 19.9907C22.0246 20.1011 22.2182 20.1843 22.4214 20.2402C22.6245 20.2962 22.8174 20.3234 23 20.3219Z" fill="#9DCCF7"/>
</svg>
