<svg width="57" height="57" viewBox="0 0 57 57" fill="none" xmlns="http://www.w3.org/2000/svg">
<path fill-rule="evenodd" clip-rule="evenodd" d="M54.0232 32.7617C55.4199 31.3848 56.4004 29.875 56.4004 28.2002C56.4004 26.5254 55.4199 25.0156 54.0232 23.6387C53.5386 23.1621 53.0071 22.6973 52.4788 22.2354C52.0959 21.9004 51.7148 21.5664 51.3542 21.2305C50.6685 20.5928 50.0508 19.9668 49.7617 19.2695C49.4587 18.541 49.4387 17.6377 49.4644 16.6826C49.4783 16.1553 49.5115 15.6143 49.5447 15.0742C49.5859 14.4072 49.627 13.7402 49.6316 13.0986C49.6484 11.1406 49.283 9.4043 48.1411 8.25879C46.9966 7.11719 45.2598 6.75195 43.3018 6.76855C42.6692 6.77539 42.0125 6.81543 41.3555 6.85547C40.8059 6.88867 40.2561 6.92188 39.7205 6.93555C38.7656 6.96191 37.8589 6.94141 37.1309 6.63867C36.4338 6.34961 35.8076 5.73145 35.1702 5.0459C34.8367 4.6875 34.5054 4.30957 34.1726 3.92969C33.708 3.39941 33.2407 2.86523 32.7617 2.37988C31.3848 0.980469 29.8748 0 28.2002 0C26.5256 0 25.0154 0.980469 23.6384 2.37988C22.8169 3.21289 22.0291 4.1875 21.2302 5.0459C20.5928 5.73145 19.9636 6.34961 19.2695 6.63867C18.5413 6.94141 17.6348 6.96191 16.6826 6.93555C16.1453 6.92188 15.5942 6.88867 15.0437 6.85547C14.3867 6.81543 13.7305 6.77539 13.0984 6.76855C11.1406 6.75195 9.40088 7.11719 8.25928 8.25879C7.1145 9.4043 6.75195 11.1406 6.7688 13.0986C6.77344 13.7402 6.81445 14.4072 6.85571 15.0742C6.88892 15.6143 6.92212 16.1553 6.93604 16.6826C6.96143 17.6377 6.94165 18.541 6.63843 19.2725C6.49609 19.6143 6.27368 19.9404 6.00269 20.2588C5.72412 20.5869 5.3938 20.9072 5.04614 21.2305C4.68237 21.5703 4.29712 21.9082 3.90991 22.2471C3.38672 22.7051 2.86035 23.166 2.37988 23.6387C0.983154 25.0156 0 26.5254 0 28.2002C0 29.875 0.983154 31.3848 2.37988 32.7617C2.86035 33.2344 3.38672 33.6953 3.90991 34.1533C4.29712 34.4922 4.68237 34.8301 5.04614 35.1699C5.73193 35.8076 6.34961 36.4336 6.63843 37.1279C6.94165 37.8594 6.96143 38.7627 6.93604 39.7178C6.91553 40.4863 6.85425 41.2832 6.81177 42.0664C6.78906 42.4844 6.77173 42.8984 6.7688 43.3018C6.75195 45.2598 7.1145 46.9961 8.25928 48.1416C9.40088 49.2832 11.1406 49.6484 13.0984 49.6318C14.2603 49.6201 15.5039 49.4951 16.6826 49.4639C17.6348 49.4385 18.5413 49.459 19.2695 49.7617C19.9636 50.0508 20.5928 50.6689 21.2302 51.3545C21.6453 51.8008 22.0571 52.2773 22.4724 52.75C22.8567 53.1875 23.2437 53.6201 23.6384 54.0205C25.0154 55.4199 26.5256 56.4004 28.2002 56.4004C29.8748 56.4004 31.3848 55.4199 32.7617 54.0205C33.5835 53.1875 34.3711 52.2129 35.1702 51.3545C35.8076 50.6689 36.4338 50.0508 37.1309 49.7617C37.8589 49.459 38.7656 49.4385 39.7205 49.4639C40.8962 49.4951 42.1401 49.6201 43.3018 49.6318C45.2598 49.6484 46.9966 49.2832 48.1411 48.1416C49.283 46.9961 49.6484 45.2598 49.6316 43.3018C49.627 42.6602 49.5859 41.9932 49.5447 41.3262C49.5115 40.7861 49.4783 40.2451 49.4644 39.7178C49.4387 38.7627 49.4587 37.8594 49.7617 37.1309C50.0508 36.4336 50.6685 35.8076 51.3542 35.1699C52.2126 34.3711 53.1873 33.584 54.0232 32.7617ZM52.9834 26.7324C53.3176 27.1943 53.5669 27.668 53.5669 28.2002C53.5669 28.7324 53.3176 29.2061 52.9834 29.668C52.5186 30.3086 51.884 30.9062 51.2209 31.498C49.5691 32.9746 47.8069 34.4453 47.1438 36.043C46.5061 37.585 46.6208 39.6895 46.7334 41.752L46.7585 42.2139C46.7859 42.7197 46.8069 43.2188 46.7981 43.6963C46.7915 44.0615 46.7676 44.415 46.7161 44.75C46.6338 45.291 46.4893 45.7842 46.1379 46.1348C45.7839 46.4893 45.2908 46.6338 44.7498 46.7158C43.9761 46.835 43.1064 46.8066 42.2139 46.7588L41.7483 46.7334C39.6863 46.6211 37.5845 46.5059 36.0457 47.1436C34.4448 47.8066 32.9744 49.5664 31.498 51.2207C30.906 51.8838 30.3081 52.5186 29.6677 52.9834C29.356 53.209 29.0393 53.3965 28.7021 53.4941C28.54 53.541 28.3733 53.5674 28.2002 53.5674C27.6704 53.5674 27.1943 53.3174 26.7324 52.9834C26.3684 52.7188 26.0181 52.3994 25.6748 52.0518C25.4143 51.7871 25.1577 51.5068 24.9021 51.2207C23.426 49.5664 21.9556 47.8066 20.3547 47.1436C18.7 46.458 16.3936 46.6426 14.1865 46.7588C13.2939 46.8066 12.4241 46.835 11.6506 46.7158C11.1067 46.6338 10.6165 46.4893 10.2625 46.1348C9.9082 45.7842 9.7666 45.291 9.68433 44.75C9.56543 43.9766 9.59375 43.1064 9.63892 42.2139L9.66333 41.7725C9.77856 39.7031 9.89648 37.5898 9.25659 36.0459C8.9104 35.21 8.26538 34.4102 7.49268 33.626C6.78516 32.9082 5.97021 32.2041 5.17944 31.498C4.51636 30.9062 3.88159 30.3086 3.41699 29.668C3.08276 29.2061 2.83325 28.7324 2.83325 28.2002C2.83325 27.668 3.08276 27.1943 3.41699 26.7324C3.88159 26.0918 4.51636 25.4941 5.17944 24.9023L5.5896 24.5371C7.11646 23.1826 8.64819 21.8232 9.25659 20.3545C9.89648 18.8105 9.77856 16.6973 9.66333 14.6279L9.63892 14.1865C9.59375 13.2939 9.56543 12.4238 9.68433 11.6504C9.7666 11.1094 9.9082 10.6162 10.2625 10.2656C10.6165 9.91113 11.1067 9.7666 11.6506 9.68457C12.4241 9.56543 13.2939 9.59375 14.1865 9.6416L14.6521 9.66699C16.7136 9.7793 18.8159 9.89453 20.3547 9.25684C21.8235 8.64844 23.1826 7.11719 24.5366 5.59082L24.9021 5.17969C25.4944 4.5166 26.0923 3.88184 26.7324 3.41699C27.0176 3.21094 27.3081 3.03711 27.6135 2.93359C27.8027 2.86914 27.9976 2.83301 28.2002 2.83301C28.7329 2.83301 29.2061 3.08301 29.6677 3.41699C30.3081 3.88184 30.906 4.5166 31.498 5.17969L31.8643 5.5918C33.2185 7.11719 34.5771 8.64844 36.0457 9.25684C37.5845 9.89453 39.6863 9.7793 41.7483 9.66699L42.2139 9.6416C42.6318 9.61914 43.0449 9.60059 43.4453 9.60059C43.8999 9.59961 44.3384 9.62109 44.7498 9.68457C45.0835 9.73535 45.3992 9.80957 45.675 9.94238C45.8464 10.0244 46.0024 10.1299 46.1379 10.2656C46.4893 10.6162 46.6338 11.1094 46.7161 11.6504C46.835 12.4238 46.8066 13.2939 46.7585 14.1865L46.7334 14.6484C46.6208 16.7109 46.5061 18.8154 47.1438 20.3574C47.7498 21.8174 49.2739 23.1709 50.7927 24.5215L51.2209 24.9023C51.884 25.4941 52.5186 26.0918 52.9834 26.7324ZM23.5559 14H26.3936C26.7698 14 27.1306 14.1475 27.3967 14.4102C27.6628 14.6729 27.8123 15.0283 27.8123 15.4004C27.8123 15.7715 27.6628 16.127 27.3967 16.3896C27.2227 16.5615 27.0083 16.6846 26.7754 16.748C26.6521 16.7822 26.5237 16.7998 26.3936 16.7998V26.5996C26.3936 26.9707 26.2439 27.3271 25.978 27.5898C25.8259 27.7402 25.6428 27.8525 25.4434 27.9209C25.2939 27.9727 25.1357 28 24.9746 28C24.5984 28 24.2375 27.8525 23.9714 27.5898C23.8169 27.4375 23.7019 27.2529 23.6326 27.0527C23.5823 26.9082 23.5559 26.7549 23.5559 26.5996V22.3994H21.876C22.0442 22.8486 22.1326 23.3223 22.1372 23.7998C22.1372 24.7246 21.8279 25.623 21.2576 26.3564C20.6873 27.0898 19.8875 27.6172 18.9824 27.8564C18.0774 28.0957 17.1177 28.0332 16.2522 27.6797C15.3865 27.3262 14.6633 26.7002 14.1948 25.8994C14.144 25.8145 14.1028 25.7246 14.0715 25.6309C14.0444 25.5498 14.0249 25.4668 14.0132 25.3818C13.9878 25.1982 13.9993 25.0127 14.0471 24.834C14.0762 24.7256 14.1184 24.6211 14.1726 24.5234C14.2075 24.46 14.2473 24.3994 14.2917 24.3418C14.4055 24.1943 14.5474 24.0713 14.7095 23.9795C14.8713 23.8867 15.0503 23.8271 15.2358 23.8037C15.353 23.7881 15.4712 23.7871 15.5879 23.8018C15.6562 23.8096 15.7239 23.8232 15.7905 23.8408C15.9712 23.8887 16.1401 23.9727 16.2881 24.085C16.436 24.1982 16.5596 24.3389 16.6521 24.5C16.7769 24.7129 16.9561 24.8887 17.1716 25.0117C17.3872 25.1348 17.6318 25.1992 17.8809 25.2002C18.2571 25.2002 18.6179 25.0527 18.884 24.79C19.1501 24.5273 19.2996 24.1709 19.2996 23.7998C19.2996 23.4287 19.1501 23.0723 18.884 22.8096C18.6179 22.5469 18.2571 22.3994 17.8809 22.3994C17.5046 22.3994 17.1436 22.252 16.8777 21.9902C16.7075 21.8223 16.585 21.6162 16.5188 21.3916C16.4814 21.2656 16.4619 21.1338 16.4619 21C16.4619 20.6289 16.6116 20.2725 16.8777 20.0098C17.1436 19.7471 17.5046 19.5996 17.8809 19.5996C18.083 19.5996 18.2805 19.5566 18.4614 19.4766C18.6174 19.4082 18.7607 19.3115 18.884 19.1895C19.1501 18.9277 19.2996 18.5713 19.2996 18.2002C19.2996 17.8291 19.1501 17.4727 18.884 17.21C18.6179 16.9473 18.2571 16.7998 17.8809 16.7998C17.7278 16.7998 17.5764 16.8242 17.4324 16.8721C17.342 16.9014 17.2546 16.9404 17.1716 16.9883C16.9561 17.1104 16.7769 17.2871 16.6521 17.5C16.5596 17.6602 16.436 17.8018 16.2881 17.9141C16.2029 17.9795 16.1106 18.0342 16.0132 18.0791C15.9417 18.1113 15.8672 18.1387 15.7905 18.1592C15.6099 18.207 15.4214 18.2197 15.2358 18.1963C15.0503 18.1729 14.8713 18.1123 14.7095 18.0205C14.5474 17.9277 14.4055 17.8047 14.2917 17.6582C14.178 17.5117 14.095 17.3447 14.0471 17.166C13.9993 16.9873 13.9878 16.8008 14.0132 16.6182C14.0383 16.4355 14.1001 16.2588 14.1948 16.0996C14.4124 15.7285 14.6846 15.3945 15.0007 15.1084C15.3655 14.7773 15.7883 14.5098 16.2522 14.3203C17.1177 13.9658 18.0774 13.9043 18.9824 14.1436C19.8875 14.3828 20.6873 14.9102 21.2576 15.6436C21.8279 16.377 22.1372 17.2754 22.1372 18.2002C22.1326 18.6777 22.0442 19.1514 21.876 19.5996H23.5559V16.7998C23.3838 16.7998 23.2148 16.7686 23.0566 16.71C22.8694 16.6406 22.697 16.5322 22.5527 16.3896C22.2866 16.127 22.1372 15.7715 22.1372 15.4004C22.1372 15.0283 22.2866 14.6729 22.5527 14.4102C22.8188 14.1475 23.1797 14 23.5559 14ZM32.0686 21H30.6499C30.2734 21 29.9126 20.8525 29.6465 20.5898C29.3804 20.3271 29.231 19.9707 29.231 19.5996C29.231 19.2285 29.3804 18.8721 29.6465 18.6104C29.9126 18.3477 30.2734 18.2002 30.6499 18.2002H32.0686C33.197 18.2012 34.2791 18.6436 35.0769 19.4316C35.875 20.2188 36.3237 21.2861 36.325 22.3994V23.7998C36.325 24.1709 36.1755 24.5273 35.9094 24.79C35.6433 25.0527 35.2825 25.2002 34.906 25.2002C34.5298 25.2002 34.1689 25.0527 33.9028 24.79C33.7539 24.6426 33.6414 24.4668 33.5713 24.2754C33.5161 24.124 33.4873 23.9629 33.4873 23.7998V22.3994C33.4871 22.0283 33.3374 21.6729 33.0713 21.4102C32.8054 21.1475 32.4448 21 32.0686 21ZM23.5559 33.5996H24.9746C25.3511 33.5996 25.7119 33.7471 25.978 34.0098C26.2439 34.2725 26.3936 34.6279 26.3936 35C26.3936 35.1689 26.3625 35.335 26.3037 35.4902C26.2334 35.6758 26.123 35.8457 25.978 35.9893C25.7119 36.252 25.3511 36.3994 24.9746 36.3994H23.5559C23.0923 36.3994 22.6365 36.3242 22.2048 36.1816C21.5862 35.9766 21.0176 35.6318 20.5474 35.168C19.7495 34.3809 19.3008 33.3135 19.2996 32.1992V30.7998C19.2996 30.4287 19.449 30.0723 19.7151 29.8096C19.9812 29.5469 20.342 29.3994 20.7183 29.3994C21.0947 29.3994 21.4556 29.5469 21.7217 29.8096C21.9875 30.0723 22.1372 30.4287 22.1372 30.7998V32.1992C22.1375 32.5713 22.2871 32.9268 22.553 33.1895C22.6824 33.3164 22.834 33.417 22.999 33.4863C23.1733 33.5605 23.3625 33.5996 23.5559 33.5996ZM41.5845 31.79C41.3184 32.0518 40.9575 32.1992 40.5813 32.1992H39.4773C39.1021 34.2188 38.2173 36.1123 36.9053 37.7061C37.5552 38.1631 38.259 38.5371 39 38.8203C39.4463 38.9912 39.906 39.1289 40.3755 39.2314C40.7432 39.3115 41.0635 39.5322 41.2664 39.8447C41.469 40.1582 41.5376 40.5381 41.4565 40.9004C41.3757 41.2637 41.1521 41.5791 40.835 41.7793C40.5178 41.9795 40.1331 42.0469 39.7654 41.9668C37.9746 41.5791 36.2937 40.8037 34.8438 39.6963C33.406 40.8027 31.7361 41.5791 29.9561 41.9668C29.6697 42.0293 29.373 42.001 29.1062 41.8916C29.0305 41.8604 28.9573 41.8223 28.8872 41.7783C28.5703 41.5771 28.3474 41.2607 28.2668 40.8984C28.1865 40.5352 28.2556 40.1562 28.4587 39.8438C28.6619 39.5312 28.9827 39.3105 29.3501 39.2314C30.5913 38.9541 31.7625 38.4307 32.7922 37.6934C32.269 37.0557 31.8125 36.3662 31.4302 35.6377C31.3877 35.5615 31.3525 35.4814 31.3252 35.3994C31.2937 35.3047 31.2725 35.207 31.262 35.1074C31.2424 34.9209 31.261 34.7324 31.3167 34.5537C31.3721 34.374 31.4636 34.208 31.5854 34.0645C31.6531 33.9844 31.7295 33.9131 31.813 33.8496C31.8796 33.7998 31.9509 33.7559 32.0259 33.7178C32.1948 33.6318 32.3794 33.5811 32.5686 33.5674C32.7581 33.5537 32.9482 33.5771 33.1279 33.6367C33.3079 33.6973 33.4736 33.792 33.6155 33.917C33.688 33.9805 33.7537 34.0508 33.8113 34.127C33.8665 34.2002 33.9143 34.2793 33.9541 34.3613C34.2107 34.8447 34.5098 35.3057 34.8479 35.7373C35.6731 34.6924 36.2651 33.4863 36.5859 32.1992H29.231C28.8547 32.1992 28.4939 32.0518 28.2278 31.79C27.9617 31.5273 27.8123 31.1709 27.8123 30.7998C27.8123 30.4287 27.9617 30.0723 28.2278 29.8096C28.4939 29.5469 28.8547 29.3994 29.231 29.3994H33.4873V28.7002C33.4873 28.3281 33.6367 27.9727 33.9028 27.71C34.0701 27.5449 34.2747 27.4248 34.4968 27.3594C34.6284 27.3203 34.7661 27.2998 34.906 27.2998C35.2825 27.2998 35.6433 27.4473 35.9094 27.71C36.1755 27.9727 36.325 28.3281 36.325 28.7002V29.3994H40.5813C40.9575 29.3994 41.3184 29.5469 41.5845 29.8096C41.8506 30.0723 42 30.4287 42 30.7998C42 31.1709 41.8506 31.5273 41.5845 31.79Z" fill="#2C4FA9"/>
</svg>
