<svg width="75" height="91" viewBox="0 0 75 91" fill="none" xmlns="http://www.w3.org/2000/svg">
<path fill-rule="evenodd" clip-rule="evenodd" d="M33.3283 1.68765C35.6544 -0.562554 39.3458 -0.562549 41.6719 1.68766L45.3982 5.29255C46.7284 6.57932 48.5779 7.18026 50.4103 6.92107L55.5439 6.19495C58.7483 5.7417 61.7348 7.9115 62.294 11.0992L63.1898 16.2059C63.5095 18.0287 64.6526 19.602 66.2874 20.4694L70.8673 22.8994C73.7262 24.4163 74.8669 27.9271 73.4456 30.8346L71.1687 35.4926C70.3559 37.1552 70.3559 39.0999 71.1687 40.7626L73.4456 45.4205C74.8669 48.3281 73.7262 51.8389 70.8673 53.3557L66.2874 55.7857C64.6526 56.6531 63.5095 58.2264 63.1898 60.0492L62.294 65.156C61.9582 67.0702 60.7471 68.6173 59.1392 69.4498L66.0714 81.4567L53.2173 77.6374L50.0979 90.679L41.0846 75.0675C39.07 76.5715 36.3283 76.647 34.2408 75.2939L25.2945 90.7893L22.1751 77.7477L9.32104 81.567L16.2185 69.6202C14.4342 68.8407 13.0665 67.2096 12.7062 65.156L11.8105 60.0492C11.4907 58.2264 10.3476 56.6531 8.71283 55.7857L4.13286 53.3557C1.274 51.8389 0.133278 48.3281 1.55457 45.4205L3.83151 40.7626C4.64427 39.0999 4.64427 37.1552 3.83151 35.4926L1.55457 30.8346C0.133281 27.9271 1.27401 24.4163 4.13286 22.8994L8.71283 20.4694C10.3476 19.602 11.4907 18.0287 11.8105 16.2059L12.7062 11.0992C13.2654 7.9115 16.2519 5.7417 19.4563 6.19495L24.5899 6.92107C26.4223 7.18026 28.2718 6.57931 29.602 5.29255L33.3283 1.68765ZM34.553 61.0439C31.8642 61.0439 29.3393 60.2898 26.9784 58.7814C24.6831 57.2075 22.814 54.8138 21.3712 51.6003C19.9285 48.3868 19.2071 44.3864 19.2071 39.599C19.2071 36.5167 19.4038 33.6639 19.7973 31.0407C20.2564 28.3519 20.8466 26.3189 21.568 24.9417C22.6173 23.4333 24.9454 21.4331 28.5523 18.941C32.2249 16.449 34.6513 15.2029 35.8318 15.2029C37.1434 15.2029 42.8817 15.9571 53.0468 17.4655V54.4531L56.3914 55.8303V59.47C51.2105 60.5193 48.3249 61.0439 47.7347 61.0439C47.4724 61.0439 46.8494 60.5849 45.8657 59.6667C44.882 58.7486 44.3901 58.1256 44.3901 57.7977V53.9612C43.9966 54.2891 42.3571 55.5679 39.4715 57.7977C36.586 59.9619 34.9465 61.0439 34.553 61.0439ZM35.1432 53.7645C35.8646 53.7645 38.8485 52.4529 44.095 49.8296V22.7775C42.4555 22.2529 40.3241 21.7938 37.7009 21.4003C35.0776 20.9412 33.3069 20.7773 32.3888 20.9085C31.1428 21.1052 30.1919 22.5152 29.536 25.1384C28.9458 27.7617 28.6507 32.3523 28.6507 38.9104C28.6507 42.255 29.0114 45.0422 29.7328 47.272C30.5198 49.5017 31.4051 51.1412 32.3888 52.1905C33.4381 53.2398 34.3562 53.7645 35.1432 53.7645Z" fill="#9DCCF7"/>
</svg>
