<svg width="56" height="57" viewBox="0 0 56 57" fill="none" xmlns="http://www.w3.org/2000/svg">
<path fill-rule="evenodd" clip-rule="evenodd" d="M32.2648 5.16786L29.0499 2.20044C28.457 1.65313 27.543 1.65313 26.9501 2.20044L23.7352 5.16786C22.7378 6.08849 21.3515 6.45994 20.0274 6.16136L15.7595 5.19896C14.9723 5.02146 14.1808 5.47841 13.941 6.24886L12.6405 10.4262C12.237 11.7222 11.2222 12.737 9.9262 13.1405L5.74886 14.441C4.97841 14.6808 4.52146 15.4723 4.69896 16.2595L5.66136 20.5274C5.95994 21.8515 5.58849 23.2377 4.66786 24.2352L1.70044 27.4501C1.15313 28.043 1.15314 28.957 1.70044 29.5499L4.66786 32.7648C5.58849 33.7622 5.95994 35.1485 5.66136 36.4726L4.69896 40.7405C4.52146 41.5277 4.97841 42.3192 5.74886 42.559L9.9262 43.8595C11.2222 44.263 12.237 45.2778 12.6405 46.5738L13.941 50.7511C14.1808 51.5216 14.9723 51.9785 15.7595 51.801L20.0274 50.8386C21.3515 50.5401 22.7378 50.9115 23.7352 51.8321L26.9501 54.7996C27.543 55.3469 28.457 55.3469 29.0499 54.7996L32.2648 51.8321C33.2623 50.9115 34.6485 50.5401 35.9726 50.8386L40.2405 51.801C41.0277 51.9785 41.8192 51.5216 42.059 50.7511L43.3595 46.5738C43.763 45.2778 44.7778 44.263 46.0738 43.8595L50.2511 42.559C51.0216 42.3192 51.4785 41.5277 51.301 40.7405L50.3386 36.4726C50.0401 35.1485 50.4115 33.7623 51.3321 32.7648L54.2996 29.5499C54.8469 28.957 54.8469 28.043 54.2996 27.4501L51.3321 24.2352C50.4115 23.2377 50.0401 21.8515 50.3386 20.5274L51.301 16.2595C51.4785 15.4723 51.0216 14.6808 50.2511 14.441L46.0738 13.1405C44.7778 12.737 43.763 11.7222 43.3595 10.4262L42.059 6.24886C41.8192 5.47841 41.0277 5.02146 40.2405 5.19896L35.9726 6.16136C34.6485 6.45993 33.2623 6.08849 32.2648 5.16786ZM29.9248 1.25254C28.8378 0.249154 27.1623 0.249153 26.0752 1.25254L22.8602 4.21997C22.1745 4.8529 21.2215 5.10827 20.3111 4.90299L16.0432 3.94059C14.6001 3.61517 13.1491 4.45292 12.7093 5.86542L11.4088 10.0428C11.1314 10.9337 10.4337 11.6314 9.54276 11.9088L5.36542 13.2093C3.95293 13.6491 3.11517 15.1001 3.44059 16.5432L4.40299 20.8111C4.60827 21.7215 4.3529 22.6745 3.71997 23.3602L0.752539 26.5752C-0.250846 27.6622 -0.250847 29.3378 0.752538 30.4248L3.71997 33.6398C4.3529 34.3255 4.60827 35.2785 4.40299 36.1889L3.44059 40.4568C3.11517 41.8999 3.95292 43.3509 5.36542 43.7907L9.54276 45.0912C10.4337 45.3686 11.1314 46.0662 11.4088 46.9572L12.7093 51.1346C13.1491 52.5471 14.6001 53.3848 16.0432 53.0594L20.3111 52.097C21.2215 51.8917 22.1745 52.1471 22.8602 52.78L26.0752 55.7475C27.1623 56.7508 28.8378 56.7508 29.9248 55.7475L33.1398 52.78C33.8255 52.1471 34.7785 51.8917 35.6889 52.097L39.9568 53.0594C41.3999 53.3848 42.8509 52.5471 43.2907 51.1346L44.5912 46.9572C44.8686 46.0662 45.5663 45.3686 46.4572 45.0912L50.6346 43.7907C52.0471 43.3509 52.8848 41.8999 52.5594 40.4568L51.597 36.1889C51.3917 35.2785 51.6471 34.3255 52.28 33.6398L55.2475 30.4248C56.2508 29.3378 56.2508 27.6622 55.2475 26.5752L52.28 23.3602C51.6471 22.6745 51.3917 21.7215 51.597 20.8111L52.5594 16.5432C52.8848 15.1001 52.0471 13.6491 50.6346 13.2093L46.4572 11.9088C45.5663 11.6314 44.8686 10.9337 44.5912 10.0428L43.2907 5.86542C42.8509 4.45293 41.3999 3.61517 39.9568 3.94059L35.6889 4.90299C34.7785 5.10827 33.8255 4.8529 33.1398 4.21997L29.9248 1.25254Z" fill="#2C4FA9"/>
<path fill-rule="evenodd" clip-rule="evenodd" d="M21.4314 40.4372L21.4141 40.4253C19.969 39.4344 18.854 37.9681 18.0257 36.1231C17.1726 34.2231 16.7773 31.9314 16.7773 29.2998C16.7773 27.629 16.8839 26.0678 17.1012 24.6194L17.1031 24.6065L17.1053 24.5936C17.3545 23.1345 17.6918 21.9126 18.163 21.0131L18.2005 20.9414L18.2467 20.875C18.9441 19.8725 20.3449 18.7093 22.2359 17.4028L22.2404 17.3997L22.2448 17.3967C23.2281 16.7295 24.0766 16.2069 24.7792 15.8461C25.4183 15.5179 26.1376 15.2134 26.7874 15.2134C27.2093 15.2134 28.1258 15.3137 29.4139 15.48C30.7461 15.6521 32.5768 15.9094 34.9026 16.2511C36.1678 16.437 37.1071 17.523 37.1071 18.8028V36.2273L37.2679 36.2934C38.2321 36.6905 38.8615 37.6302 38.8615 38.6731C38.8615 39.8972 37.9978 40.955 36.7935 41.1947C35.7539 41.4016 34.9324 41.5584 34.3334 41.6639C33.7978 41.7583 33.3051 41.8382 33.0308 41.8382C32.6768 41.8382 32.4028 41.7024 32.2984 41.6483C32.1573 41.5751 32.0272 41.4871 31.9174 41.4061C31.695 41.2423 31.4424 41.0228 31.1703 40.7689C30.8925 40.5096 30.6452 40.2566 30.4575 40.0189C30.364 39.9004 30.2625 39.7573 30.1791 39.5961C30.1528 39.5453 30.1208 39.4785 30.0905 39.3982C29.9018 39.5442 29.7001 39.7002 29.4853 39.8662L29.478 39.8719L29.4706 39.8775C28.7071 40.45 28.0894 40.894 27.627 41.1992C27.3982 41.3502 27.1854 41.4819 27.0001 41.5805C26.9083 41.6294 26.8007 41.6823 26.6868 41.726C26.6032 41.7581 26.3863 41.8382 26.1167 41.8382C24.4495 41.8382 22.8857 41.3664 21.4491 40.4485L21.4314 40.4372ZM27.5609 21.0274L27.5454 21.0247C26.2775 20.8028 25.5599 20.7478 25.2503 20.765C25.2346 20.783 25.2133 20.81 25.1867 20.8494C25.057 21.0418 24.8937 21.4039 24.7403 22.0128C24.4676 23.2373 24.3107 25.5106 24.3107 28.9386C24.3107 30.6018 24.4904 31.9141 24.8105 32.9115C25.1905 33.9836 25.5741 34.6438 25.9092 35.0078C26.1254 35.222 26.2878 35.342 26.3955 35.4036C26.4025 35.4076 26.4092 35.4113 26.4154 35.4146C26.4268 35.4108 26.4392 35.4067 26.4526 35.4022C26.6168 35.3462 26.8531 35.2538 27.1709 35.1173C27.8026 34.8462 28.6865 34.4313 29.8317 33.8665V21.4566C29.1992 21.3036 28.4489 21.1606 27.5765 21.0298L27.5609 21.0274ZM24.9815 35.9044C24.4655 35.354 24.0011 34.494 23.5883 33.3245C23.2099 32.1549 23.0208 30.6929 23.0208 28.9386C23.0208 25.4987 23.1755 23.0908 23.4851 21.7148C23.8291 20.3389 24.3279 19.5993 24.9815 19.4961C25.4631 19.4273 26.3918 19.5133 27.7678 19.7541C28.7028 19.8943 29.5186 20.0504 30.2153 20.2225C30.7599 20.3569 31.1217 20.8571 31.1217 21.4181V33.8688C31.1217 34.3574 30.8455 34.8047 30.4073 35.0209C28.0976 36.1603 26.7706 36.73 26.4263 36.73C26.0135 36.73 25.5319 36.4548 24.9815 35.9044ZM18.3769 24.8107C18.1705 26.1867 18.0673 27.683 18.0673 29.2998C18.0673 31.8109 18.4457 33.9092 19.2025 35.5948C19.9592 37.2803 20.9396 38.5359 22.1436 39.3615C23.3819 40.1526 24.7063 40.5482 26.1167 40.5482C26.3231 40.5482 27.183 39.9807 28.6966 38.8455C29.0681 38.5584 29.4002 38.3014 29.693 38.0744C30.3245 37.5848 31.2765 38.0464 31.2765 38.8455C31.2765 39.0175 31.5345 39.3443 32.0505 39.8259C32.5665 40.3074 32.8932 40.5482 33.0308 40.5482C33.2989 40.5482 34.4691 40.342 36.5417 39.9295C37.1406 39.8103 37.5715 39.2837 37.5715 38.6731C37.5715 38.153 37.2576 37.6843 36.7767 37.4862L36.616 37.4201C36.1326 37.221 35.8172 36.75 35.8172 36.2273V18.8028C35.8172 18.1635 35.3476 17.6203 34.7151 17.5274C30.069 16.8447 27.4265 16.5034 26.7874 16.5034C26.1683 16.5034 24.8955 17.157 22.9692 18.4641C21.0772 19.7713 19.8561 20.8204 19.3057 21.6116C18.9273 22.334 18.6177 23.4004 18.3769 24.8107Z" fill="#2C4FA9"/>
<path fill-rule="evenodd" clip-rule="evenodd" d="M25.193 8.29196C26.0697 8.1776 26.9636 8.11864 27.871 8.11864C28.7784 8.11864 29.6723 8.1776 30.549 8.29196C30.9023 8.33804 31.1512 8.66173 31.1052 9.01495C31.0591 9.36817 30.7354 9.61716 30.3822 9.57109C29.5606 9.46392 28.7224 9.4086 27.871 9.4086C27.0196 9.4086 26.1814 9.46392 25.3598 9.57109C25.0066 9.61716 24.6829 9.36817 24.6368 9.01495C24.5908 8.66173 24.8398 8.33804 25.193 8.29196ZM20.8626 10.024C20.999 10.353 20.8429 10.7304 20.5138 10.8668C18.9516 11.5146 17.4931 12.3627 16.1703 13.3792C15.8878 13.5963 15.4829 13.5433 15.2659 13.2608C15.0488 12.9784 15.1018 12.5735 15.3843 12.3564C16.7954 11.272 18.3519 10.3668 20.0197 9.67523C20.3488 9.53878 20.7261 9.69491 20.8626 10.024ZM34.8795 10.024C35.0159 9.69491 35.3933 9.53878 35.7223 9.67523C37.3901 10.3668 38.9466 11.272 40.3577 12.3564C40.6402 12.5735 40.6932 12.9784 40.4762 13.2608C40.2591 13.5433 39.8542 13.5963 39.5717 13.3792C38.2489 12.3627 36.7904 11.5146 35.2282 10.8668C34.8991 10.7304 34.743 10.353 34.8795 10.024ZM12.5028 16.0239C12.7853 16.2409 12.8383 16.6458 12.6212 16.9283C11.6047 18.2511 10.7566 19.7096 10.1088 21.2718C9.97235 21.6009 9.595 21.757 9.26595 21.6206C8.93691 21.4841 8.78078 21.1068 8.91723 20.7777C9.60884 19.1099 10.514 17.5534 11.5984 16.1423C11.8155 15.8598 12.2204 15.8068 12.5028 16.0239ZM43.2392 16.0239C43.5216 15.8068 43.9266 15.8598 44.1436 16.1423C45.228 17.5534 46.1332 19.1099 46.8248 20.7777C46.9612 21.1068 46.8051 21.4841 46.4761 21.6206C46.147 21.757 45.7697 21.6009 45.6332 21.2718C44.9854 19.7096 44.1373 18.2511 43.1208 16.9283C42.9037 16.6458 42.9567 16.2409 43.2392 16.0239ZM8.25695 25.3948C8.61017 25.4409 8.85916 25.7646 8.81309 26.1178C8.70592 26.9394 8.6506 27.7776 8.6506 28.629C8.6506 29.4804 8.70592 30.3186 8.81309 31.1402C8.85916 31.4934 8.61017 31.8171 8.25695 31.8632C7.90373 31.9092 7.58004 31.6603 7.53396 31.307C7.4196 30.4303 7.36064 29.5364 7.36064 28.629C7.36064 27.7217 7.4196 26.8277 7.53396 25.951C7.58004 25.5978 7.90373 25.3488 8.25695 25.3948ZM47.4851 25.3948C47.8383 25.3488 48.162 25.5978 48.208 25.951C48.3224 26.8277 48.3814 27.7217 48.3814 28.629C48.3814 29.5364 48.3224 30.4303 48.208 31.307C48.162 31.6603 47.8383 31.9092 47.4851 31.8632C47.1318 31.8171 46.8828 31.4934 46.9289 31.1402C47.0361 30.3186 47.0914 29.4804 47.0914 28.629C47.0914 27.7776 47.0361 26.9394 46.9289 26.1178C46.8828 25.7646 47.1318 25.4409 47.4851 25.3948ZM9.26595 35.6374C9.59499 35.501 9.97235 35.6571 10.1088 35.9862C10.7566 37.5484 11.6047 39.0069 12.6212 40.3297C12.8383 40.6122 12.7853 41.0171 12.5028 41.2341C12.2204 41.4512 11.8155 41.3982 11.5984 41.1157C10.514 39.7046 9.60884 38.1481 8.91723 36.4803C8.78078 36.1513 8.93691 35.7739 9.26595 35.6374ZM46.4761 35.6374C46.8051 35.7739 46.9612 36.1513 46.8248 36.4803C46.1332 38.1481 45.228 39.7046 44.1436 41.1157C43.9266 41.3982 43.5216 41.4512 43.2392 41.2341C42.9567 41.0171 42.9037 40.6122 43.1208 40.3297C44.1373 39.0069 44.9854 37.5484 45.6332 35.9862C45.7697 35.6571 46.147 35.501 46.4761 35.6374ZM15.2659 43.9972C15.4829 43.7147 15.8878 43.6617 16.1703 43.8788C17.4931 44.8953 18.9516 45.7434 20.5138 46.3912C20.8429 46.5277 20.999 46.905 20.8626 47.2341C20.7261 47.5631 20.3488 47.7192 20.0197 47.5828C18.3519 46.8912 16.7954 45.986 15.3843 44.9016C15.1018 44.6846 15.0488 44.2796 15.2659 43.9972ZM40.4762 43.9972C40.6932 44.2796 40.6402 44.6846 40.3577 44.9016C38.9466 45.986 37.3901 46.8912 35.7223 47.5828C35.3933 47.7192 35.0159 47.5631 34.8795 47.2341C34.743 46.905 34.8991 46.5277 35.2282 46.3912C36.7904 45.7434 38.2489 44.8953 39.5717 43.8788C39.8542 43.6617 40.2591 43.7147 40.4762 43.9972ZM24.6368 48.2431C24.6829 47.8898 25.0066 47.6408 25.3598 47.6869C26.1814 47.7941 27.0196 47.8494 27.871 47.8494C28.7224 47.8494 29.5606 47.7941 30.3822 47.6869C30.7354 47.6408 31.0591 47.8898 31.1052 48.2431C31.1512 48.5963 30.9023 48.92 30.549 48.966C29.6723 49.0804 28.7784 49.1394 27.871 49.1394C26.9636 49.1394 26.0697 49.0804 25.193 48.966C24.8398 48.92 24.5908 48.5963 24.6368 48.2431Z" fill="#2C4FA9"/>
<path fill-rule="evenodd" clip-rule="evenodd" d="M18.0673 29.2998C18.0673 27.683 18.1705 26.1867 18.3769 24.8107C18.6177 23.4004 18.9273 22.334 19.3057 21.6116C19.8561 20.8204 21.0772 19.7713 22.9692 18.4641C24.8955 17.157 26.1683 16.5034 26.7874 16.5034C27.4265 16.5034 30.069 16.8447 34.7151 17.5274C35.3476 17.6203 35.8172 18.1635 35.8172 18.8028V36.2273C35.8172 36.75 36.1326 37.221 36.616 37.4201L36.7767 37.4862C37.2576 37.6843 37.5715 38.153 37.5715 38.6731C37.5715 39.2837 37.1406 39.8103 36.5417 39.9295C34.4691 40.342 33.2989 40.5482 33.0308 40.5482C32.8932 40.5482 32.5665 40.3074 32.0505 39.8259C31.5345 39.3443 31.2765 39.0175 31.2765 38.8455C31.2765 38.0464 30.3245 37.5848 29.693 38.0744C29.4002 38.3014 29.0681 38.5584 28.6966 38.8455C27.183 39.9807 26.3231 40.5482 26.1167 40.5482C24.7063 40.5482 23.3819 40.1526 22.1436 39.3615C20.9396 38.5359 19.9592 37.2803 19.2025 35.5948C18.4457 33.9092 18.0673 31.8109 18.0673 29.2998ZM24.9815 35.9044C24.4655 35.354 24.0011 34.494 23.5883 33.3245C23.2099 32.1549 23.0208 30.6929 23.0208 28.9386C23.0208 25.4987 23.1755 23.0908 23.4851 21.7148C23.8291 20.3389 24.3279 19.5993 24.9815 19.4961C25.4631 19.4273 26.3918 19.5133 27.7678 19.7541C28.7028 19.8943 29.5186 20.0504 30.2153 20.2225C30.7599 20.3569 31.1217 20.8571 31.1217 21.4181V33.8688C31.1217 34.3574 30.8455 34.8047 30.4073 35.0209C28.0976 36.1603 26.7706 36.73 26.4263 36.73C26.0135 36.73 25.5319 36.4548 24.9815 35.9044Z" fill="#2C4FA9"/>
</svg>
