<svg width="42" height="42" viewBox="0 0 42 42" fill="none" xmlns="http://www.w3.org/2000/svg">
<path d="M7 0C5.14348 0 3.36301 0.737498 2.05025 2.05025C0.737498 3.36301 0 5.14348 0 7L0 12.6C0 28.8372 13.1628 42 29.4 42H35C36.8565 42 38.637 41.2625 39.9497 39.9497C41.2625 38.637 42 36.8565 42 35V31.1304C42 30.35 41.7825 29.585 41.372 28.9213C40.9615 28.2576 40.3742 27.7214 39.676 27.3728L32.914 23.9904C32.3756 23.7213 31.7857 23.571 31.1842 23.5497C30.5827 23.5285 29.9836 23.6367 29.4276 23.8672C28.8716 24.0977 28.3716 24.445 27.9615 24.8856C27.5515 25.3261 27.2409 25.8497 27.0508 26.4208L26.2164 28.9212C26.0628 29.3801 25.7472 29.7672 25.3286 30.0099C24.9101 30.2527 24.4173 30.3345 23.9428 30.24C20.9368 29.6387 18.1759 28.1613 16.008 25.9939C13.84 23.8264 12.362 21.0659 11.76 18.06C11.6655 17.5854 11.7473 17.0927 11.9901 16.6742C12.2328 16.2556 12.6199 15.94 13.0788 15.7864L16.184 14.7504C17.1875 14.4153 18.0276 13.7138 18.5363 12.7862C19.045 11.8586 19.1849 10.7731 18.928 9.7468L17.2872 3.1836C17.0606 2.27505 16.5369 1.46828 15.7992 0.891469C15.0616 0.314656 14.1524 0.000883034 13.216 0L7 0Z" fill="white"/>
</svg>
