<svg width="57" height="57" viewBox="0 0 57 57" fill="none" xmlns="http://www.w3.org/2000/svg">
<path fill-rule="evenodd" clip-rule="evenodd" d="M54.0232 32.7618C55.42 31.3848 56.4003 29.8747 56.4003 28.2002C56.4003 26.5257 55.42 25.0155 54.0232 23.6385C53.5391 23.1626 53.0085 22.6982 52.4808 22.2363L52.4808 22.2363L52.4807 22.2362C52.0973 21.9006 51.7154 21.5664 51.3542 21.2302C50.6685 20.5927 50.0508 19.9665 49.7618 19.2695C49.4587 18.5413 49.4388 17.6375 49.4643 16.6827C49.4783 16.1551 49.5115 15.6145 49.5448 15.074C49.5858 14.407 49.6268 13.7402 49.6315 13.0985C49.6485 11.1407 49.283 9.40383 48.1412 8.25917C46.9965 7.11733 45.2597 6.75183 43.3018 6.76883C42.6653 6.77504 42.004 6.81529 41.3428 6.85553C40.7974 6.88872 40.252 6.92191 39.7205 6.936C38.7657 6.9615 37.859 6.94167 37.1308 6.6385C36.4338 6.3495 35.8077 5.73183 35.1702 5.04617C34.837 4.68816 34.5057 4.30995 34.1732 3.93023C33.7083 3.3994 33.2409 2.86562 32.7618 2.38C31.3848 0.980334 29.8747 0 28.2002 0C26.5257 0 25.0155 0.980334 23.6385 2.38C23.1595 2.86563 22.692 3.3994 22.2271 3.93023L22.2271 3.9303C21.8946 4.30999 21.5633 4.68818 21.2302 5.04617C20.5927 5.73183 19.9637 6.3495 19.2695 6.6385C18.5413 6.94167 17.6347 6.9615 16.6827 6.936C16.1493 6.9219 15.6026 6.88865 15.0563 6.85542C14.3952 6.81522 13.7345 6.77504 13.0985 6.76883C11.1407 6.75183 9.401 7.11733 8.25917 8.25917C7.1145 9.40383 6.75183 11.1407 6.76883 13.0985C6.77353 13.7402 6.81454 14.407 6.85556 15.074C6.8888 15.6145 6.92205 16.1551 6.936 16.6827C6.9615 17.6375 6.94167 18.5413 6.6385 19.2723C6.3495 19.9665 5.73183 20.5927 5.04617 21.2302C4.6815 21.5707 4.29521 21.9091 3.90727 22.2491L3.90722 22.2491L3.9072 22.2491C3.3849 22.7068 2.85959 23.167 2.38 23.6385C0.983167 25.0155 0 26.5257 0 28.2002C0 29.8747 0.983167 31.3848 2.38 32.7618C2.85962 33.2333 3.38494 33.6936 3.90727 34.1513C4.29521 34.4912 4.6815 34.8296 5.04617 35.1702C5.73183 35.8077 6.3495 36.4338 6.6385 37.128C6.94167 37.859 6.9615 38.7628 6.936 39.7177C6.92205 40.2452 6.8888 40.7858 6.85556 41.3263C6.81454 41.9933 6.77353 42.6601 6.76883 43.3018C6.75183 45.2597 7.1145 46.9965 8.25917 48.1412C9.401 49.283 11.1407 49.6485 13.0985 49.6315C13.7345 49.6253 14.3951 49.5851 15.0562 49.5449H15.0562H15.0563H15.0563H15.0563C15.6027 49.5117 16.1493 49.4784 16.6827 49.4643C17.6347 49.4388 18.5413 49.4587 19.2695 49.7618C19.9637 50.0508 20.5927 50.6685 21.2302 51.3542C21.5633 51.7121 21.8945 52.0903 22.227 52.47L22.2271 52.4701L22.2272 52.4702L22.2274 52.4704C22.6922 53.0012 23.1596 53.5348 23.6385 54.0203C25.0155 55.42 26.5257 56.4003 28.2002 56.4003C29.8747 56.4003 31.3848 55.42 32.7618 54.0203C33.2409 53.5347 33.7083 53.0009 34.1732 52.4701C34.5057 52.0904 34.837 51.7122 35.1702 51.3542C35.8077 50.6685 36.4338 50.0508 37.1308 49.7618C37.859 49.4587 38.7657 49.4388 39.7205 49.4643C40.2519 49.4784 40.7973 49.5116 41.3427 49.5448L41.3428 49.5448L41.3429 49.5448C42.0041 49.585 42.6653 49.6253 43.3018 49.6315C45.2597 49.6485 46.9965 49.283 48.1412 48.1412C49.283 46.9965 49.6485 45.2597 49.6315 43.3018C49.6268 42.6601 49.5858 41.9933 49.5448 41.3263C49.5115 40.7858 49.4783 40.2452 49.4643 39.7177C49.4388 38.7628 49.4587 37.859 49.7618 37.1308C50.0508 36.4338 50.6685 35.8077 51.3542 35.1702C51.7155 34.8339 52.0973 34.4996 52.4808 34.164C53.0085 33.7022 53.5391 33.2377 54.0232 32.7618ZM52.9833 26.7325C53.3177 27.1943 53.567 27.6675 53.567 28.2002C53.567 28.7328 53.3177 29.206 52.9833 29.6678C52.5187 30.3082 51.884 30.906 51.221 31.4982C51.079 31.625 50.9362 31.7519 50.7934 31.8788C49.2743 33.2281 47.7498 34.5822 47.1438 36.0428C46.506 37.5847 46.6209 39.688 46.7335 41.7506V41.7507C46.742 41.9054 46.7504 42.0598 46.7585 42.2138C46.8067 43.1063 46.835 43.9762 46.716 44.7497C46.6338 45.2908 46.4893 45.7838 46.138 46.1352C45.7838 46.4893 45.2908 46.6338 44.7497 46.716C43.9762 46.835 43.1063 46.8067 42.2138 46.7585C42.0603 46.7504 41.9064 46.742 41.7522 46.7336L41.7506 46.7335C39.688 46.6209 37.5849 46.506 36.0457 47.1438C34.5763 47.7524 33.2167 49.2848 31.8617 50.812C31.7405 50.9486 31.6194 51.0851 31.4982 51.221C30.906 51.884 30.3082 52.5187 29.6678 52.9833C29.206 53.3177 28.7328 53.567 28.2002 53.567C27.6703 53.567 27.1943 53.3177 26.7325 52.9833C26.0922 52.5187 25.4943 51.884 24.9022 51.221C24.781 51.0851 24.6598 50.9486 24.5386 50.812C23.1837 49.2848 21.8241 47.7524 20.3547 47.1438C18.8155 46.506 16.7124 46.6209 14.6498 46.7335L14.6482 46.7336C14.494 46.742 14.34 46.7504 14.1865 46.7585C13.294 46.8067 12.4242 46.835 11.6507 46.716C11.1067 46.6338 10.6165 46.4893 10.2623 46.1352C9.90817 45.7838 9.7665 45.2908 9.68433 44.7497C9.56533 43.9762 9.59367 43.1063 9.639 42.2138C9.64695 42.0664 9.65518 41.9186 9.66343 41.7706C9.77872 39.7016 9.89638 37.5898 9.2565 36.0457C8.64794 34.5763 7.11554 33.2167 5.58837 31.8617L5.58835 31.8617C5.45175 31.7405 5.31519 31.6194 5.17933 31.4982C4.51633 30.906 3.88167 30.3082 3.417 29.6678C3.08267 29.206 2.83333 28.7328 2.83333 28.2002C2.83333 27.6675 3.08267 27.1943 3.417 26.7325C3.88167 26.0922 4.51633 25.4943 5.17933 24.9022C5.31519 24.781 5.45174 24.6598 5.58834 24.5386C7.11553 23.1837 8.64793 21.8241 9.2565 20.3547C9.89638 18.8105 9.77872 16.6988 9.66343 14.6298V14.6298C9.65518 14.4817 9.64695 14.3339 9.639 14.1865C9.59367 13.294 9.56533 12.4242 9.68433 11.6507C9.7665 11.1095 9.90817 10.6165 10.2623 10.2652C10.6165 9.911 11.1067 9.7665 11.6507 9.68433C12.4242 9.56533 13.294 9.59367 14.1865 9.64183C14.3405 9.64994 14.495 9.65838 14.6498 9.66683C16.7124 9.77947 18.8155 9.89432 20.3547 9.2565C21.8241 8.64793 23.1837 7.11553 24.5386 5.58834C24.6598 5.45174 24.781 5.31519 24.9022 5.17933C25.4943 4.51633 26.0922 3.88167 26.7325 3.417C27.1943 3.08267 27.6703 2.83333 28.2002 2.83333C28.7328 2.83333 29.206 3.08267 29.6678 3.417C30.3082 3.88167 30.906 4.51633 31.4982 5.17933C31.6194 5.31519 31.7405 5.45175 31.8617 5.58835C33.2167 7.11553 34.5763 8.64793 36.0457 9.2565C37.5849 9.89432 39.6879 9.77947 41.7506 9.66683L41.7507 9.66682C41.9054 9.65837 42.0599 9.64994 42.2138 9.64183C43.1063 9.59367 43.9762 9.56533 44.7497 9.68433C45.2908 9.7665 45.7838 9.911 46.138 10.2652C46.4893 10.6165 46.6338 11.1095 46.716 11.6507C46.835 12.4242 46.8067 13.294 46.7585 14.1865C46.7504 14.3405 46.742 14.495 46.7335 14.6497V14.6497C46.6209 16.7124 46.506 18.8157 47.1438 20.3575C47.7498 21.8181 49.2743 23.1722 50.7933 24.5215L50.7934 24.5216L50.7941 24.5222L50.7948 24.5229C50.9372 24.6493 51.0795 24.7757 51.221 24.9022C51.884 25.4943 52.5187 26.0922 52.9833 26.7325ZM17.8126 18.8126C18.0127 18.6124 18.2842 18.5 18.5673 18.5H35.038V20.6345H18.5673C18.2842 20.6345 18.0127 20.5221 17.8126 20.3219C17.6124 20.1218 17.5 19.8503 17.5 19.5673C17.5 19.2842 17.6124 19.0127 17.8126 18.8126ZM18.5673 23.6345C18.2036 23.6345 17.8449 23.5858 17.5 23.492V37.5376C17.5 37.8207 17.6124 38.0921 17.8126 38.2923C18.0127 38.4924 18.2842 38.6049 18.5673 38.6049H37.6053V35.1871H35.2545C34.1758 35.1871 33.1413 34.7586 32.3785 33.9959C31.6157 33.2331 31.1872 32.1986 31.1872 31.1199C31.1872 30.0412 31.6157 29.0067 32.3785 28.2439C33.1413 27.4811 34.1758 27.0526 35.2545 27.0526H37.6053V23.6345H36.538H18.5673ZM40.6053 27.0681V22.1345C40.6053 21.3061 39.9337 20.6345 39.1053 20.6345H38.038V17C38.038 16.1716 37.3664 15.5 36.538 15.5H18.5673C17.4886 15.5 16.454 15.9285 15.6913 16.6913C14.9298 17.4528 14.5014 18.4852 14.5 19.562L14.5 19.5669V19.5673V37.5376C14.5 38.6163 14.9285 39.6508 15.6913 40.4136C16.454 41.1763 17.4885 41.6049 18.5673 41.6049H39.1053C39.9337 41.6049 40.6053 40.9333 40.6053 40.1049V35.1717C41.3312 35.0668 41.889 34.4421 41.889 33.6871V28.5526C41.889 27.7976 41.3312 27.1729 40.6053 27.0681ZM34.4998 30.3652C34.7 30.1651 34.9714 30.0526 35.2545 30.0526H38.889V32.1871H35.2545C34.9714 32.1871 34.7 32.0747 34.4998 31.8745C34.2997 31.6744 34.1872 31.4029 34.1872 31.1199C34.1872 30.8368 34.2997 30.5654 34.4998 30.3652Z" fill="#2C4FA9"/>
</svg>
