<svg width="80" height="91" viewBox="0 0 80 91" fill="none" xmlns="http://www.w3.org/2000/svg">
<path fill-rule="evenodd" clip-rule="evenodd" d="M10.8187 0C5.36491 0 0.943726 4.37096 0.943726 9.7628V81.2372C0.943726 86.6291 5.36491 91 10.8187 91H70.0687C75.5225 91 79.9437 86.629 79.9437 81.2372V9.7628C79.9437 4.37095 75.5225 0 70.0687 0H10.8187ZM12.9296 5.01574C9.11195 5.01574 6.01712 8.07541 6.01712 11.8497V36.1582C6.01712 39.9324 9.11195 42.9921 12.9296 42.9921H31.7193C35.537 42.9921 38.6318 39.9324 38.6318 36.1582V11.8497C38.6318 8.07541 35.537 5.01574 31.7193 5.01574H12.9296ZM22.6868 25.7953C26.6896 25.7953 29.9346 22.5872 29.9346 18.6299C29.9346 14.6726 26.6896 11.4646 22.6868 11.4646C18.684 11.4646 15.4391 14.6726 15.4391 18.6299C15.4391 22.5872 18.684 25.7953 22.6868 25.7953ZM22.6868 27.2283C29.4916 27.2283 35.0079 32.682 35.0079 39.4094H10.3657C10.3657 32.682 15.8821 27.2283 22.6868 27.2283ZM71.9713 7.88189H42.9804V14.3307H71.9713V7.88189ZM42.9804 26.5118H71.9713V32.9606H42.9804V26.5118ZM64.7235 17.9134H42.9804V22.9291H64.7235V17.9134ZM42.9804 36.5433H64.7235V41.5591H42.9804V36.5433ZM74.8703 48.7244H6.01712V78.8905C6.01712 83.204 9.55407 86.7008 13.9171 86.7008H66.9703C71.3334 86.7008 74.8703 83.204 74.8703 78.8905V48.7244Z" fill="#9DCCF7"/>
</svg>
