<svg width="57" height="57" viewBox="0 0 57 57" fill="none" xmlns="http://www.w3.org/2000/svg">
<path fill-rule="evenodd" clip-rule="evenodd" d="M54.0232 32.7617C55.4199 31.3848 56.4004 29.875 56.4004 28.2002C56.4004 26.5254 55.4199 25.0156 54.0232 23.6387C53.1873 22.8164 52.2126 22.0293 51.3542 21.2305C50.6685 20.5928 50.0508 19.9668 49.7617 19.2695C49.6096 18.9043 49.5288 18.4941 49.4893 18.0557C49.4502 17.6211 49.4517 17.1582 49.4644 16.6826C49.4783 16.1553 49.5115 15.6143 49.5447 15.0742C49.5859 14.4072 49.627 13.7402 49.6316 13.0986C49.6484 11.1406 49.283 9.4043 48.1411 8.25879C46.9966 7.11719 45.2598 6.75195 43.3018 6.76855C42.6692 6.77539 42.0125 6.81543 41.3555 6.85547C40.8059 6.88867 40.2561 6.92188 39.7205 6.93555C38.7656 6.96191 37.8589 6.94141 37.1309 6.63867C36.4338 6.34961 35.8076 5.73145 35.1702 5.0459C34.8367 4.6875 34.5054 4.30957 34.1726 3.92969C33.708 3.39941 33.2407 2.86523 32.7617 2.37988C31.3848 0.980469 29.8748 0 28.2002 0C26.5256 0 25.0154 0.980469 23.6384 2.37988C23.2522 2.77148 22.8735 3.19434 22.4976 3.62207C22.0737 4.10352 21.6536 4.59082 21.2302 5.0459C20.5928 5.73145 19.9636 6.34961 19.2695 6.63867C18.5413 6.94141 17.6348 6.96191 16.6826 6.93555C15.5039 6.90527 14.2603 6.78027 13.0984 6.76855C11.1406 6.75195 9.40088 7.11719 8.25928 8.25879C7.1145 9.4043 6.75195 11.1406 6.7688 13.0986C6.77344 13.7402 6.81445 14.4072 6.85571 15.0742C6.88892 15.6143 6.92212 16.1553 6.93604 16.6826C6.96143 17.6377 6.94165 18.541 6.63843 19.2725C6.34961 19.9668 5.73193 20.5928 5.04614 21.2305C4.19043 22.0293 3.21582 22.8164 2.37988 23.6387C0.983154 25.0156 0 26.5254 0 28.2002C0 29.875 0.983154 31.3848 2.37988 32.7617C2.86035 33.2344 3.38672 33.6953 3.90991 34.1533C4.29712 34.4922 4.68237 34.8301 5.04614 35.1699C5.40894 35.5068 5.75244 35.8408 6.03857 36.1836C6.29346 36.4893 6.50244 36.8008 6.63843 37.1279C6.94165 37.8594 6.96143 38.7627 6.93604 39.7178C6.90479 40.8965 6.77734 42.1406 6.7688 43.3018C6.75195 45.2598 7.1145 46.9961 8.25928 48.1416C9.40088 49.2832 11.1406 49.6484 13.0984 49.6318C13.7336 49.625 14.3933 49.585 15.0535 49.5449C15.6008 49.5117 16.1484 49.4785 16.6826 49.4639C17.6348 49.4385 18.5413 49.459 19.2695 49.7617C19.9636 50.0508 20.5928 50.6689 21.2302 51.3545C22.0291 52.2129 22.8169 53.1875 23.6384 54.0205C25.0154 55.4199 26.5256 56.4004 28.2002 56.4004C29.8748 56.4004 31.3848 55.4199 32.7617 54.0205C33.5835 53.1875 34.3711 52.2129 35.1702 51.3545C35.8076 50.6689 36.4338 50.0508 37.1309 49.7617C37.8589 49.459 38.7656 49.4385 39.7205 49.4639C40.2529 49.4775 40.7993 49.5107 41.3457 49.5439C42.0059 49.585 42.6663 49.625 43.3018 49.6318C45.2598 49.6484 46.9966 49.2832 48.1411 48.1416C49.283 46.9961 49.6484 45.2598 49.6316 43.3018C49.6265 42.6172 49.5801 41.9043 49.5366 41.1924C49.5063 40.6973 49.4773 40.2021 49.4644 39.7178C49.4478 39.1025 49.4502 38.5088 49.5352 37.9688C49.582 37.6709 49.6541 37.3896 49.7617 37.1309C50.0508 36.4336 50.6685 35.8076 51.3542 35.1699C52.2126 34.3711 53.1873 33.584 54.0232 32.7617ZM52.9834 26.7324C53.3176 27.1943 53.5669 27.668 53.5669 28.2002C53.5669 28.7324 53.3176 29.2061 52.9834 29.668C52.5186 30.3086 51.884 30.9062 51.2209 31.498L50.7927 31.8789C49.2739 33.2295 47.7498 34.583 47.1438 36.043C46.4583 37.7002 46.6423 40.0068 46.7585 42.2139C46.7957 42.9043 46.821 43.5811 46.7756 44.209C46.7625 44.3936 46.7432 44.5742 46.7161 44.75C46.6646 45.0889 46.5886 45.4082 46.4529 45.6865C46.3718 45.8525 46.2693 46.0039 46.1379 46.1348C45.7839 46.4893 45.2908 46.6338 44.7498 46.7158C43.9761 46.835 43.1064 46.8066 42.2139 46.7588L41.7483 46.7334C39.6863 46.6211 37.5845 46.5059 36.0457 47.1436C34.5771 47.752 33.2185 49.2832 31.8643 50.8086L31.498 51.2207C30.906 51.8838 30.3081 52.5186 29.6677 52.9834C29.2061 53.3174 28.7329 53.5674 28.2002 53.5674C27.6704 53.5674 27.1943 53.3174 26.7324 52.9834C26.0923 52.5186 25.4944 51.8838 24.9021 51.2207C23.426 49.5664 21.9556 47.8066 20.3547 47.1436C18.7 46.458 16.3936 46.6426 14.1865 46.7588C13.2939 46.8066 12.4241 46.835 11.6506 46.7158C11.1067 46.6338 10.6165 46.4893 10.2625 46.1348C9.9082 45.7842 9.7666 45.291 9.68433 44.75C9.56543 43.9766 9.59375 43.1064 9.63892 42.2139L9.66333 41.7725C9.77856 39.7031 9.89648 37.5898 9.25659 36.0459C8.64819 34.5771 7.11646 33.2178 5.5896 31.8633L5.17944 31.498C4.51636 30.9062 3.88159 30.3086 3.41699 29.668C3.08276 29.2061 2.83325 28.7324 2.83325 28.2002C2.83325 27.998 2.86914 27.8047 2.93213 27.6162C3.03491 27.3096 3.20972 27.0186 3.41699 26.7324C3.88159 26.0918 4.51636 25.4941 5.17944 24.9023C6.83398 23.4258 8.59351 21.9551 9.25659 20.3545C9.63354 19.4443 9.74756 18.3379 9.75391 17.1582C9.75928 16.1934 9.69263 15.1797 9.63892 14.1865C9.6189 13.791 9.60229 13.3994 9.60034 13.0195C9.59766 12.542 9.61816 12.0811 9.68433 11.6504C9.7666 11.1094 9.9082 10.6162 10.2625 10.2656C10.6165 9.91113 11.1067 9.7666 11.6506 9.68457C12.2375 9.59375 12.8801 9.58887 13.5459 9.6123C13.7573 9.61914 13.9712 9.62988 14.1865 9.6416C16.3936 9.75781 18.7 9.94238 20.3547 9.25684C21.8235 8.64844 23.1826 7.11719 24.5366 5.59082L24.9021 5.17969C25.4944 4.5166 26.0923 3.88184 26.7324 3.41699C27.1943 3.08301 27.6704 2.83301 28.2002 2.83301C28.5798 2.83301 28.9292 2.95996 29.2656 3.1543C29.4014 3.23242 29.5349 3.32129 29.6677 3.41699C30.3081 3.88184 30.906 4.5166 31.498 5.17969L31.8643 5.5918C33.2185 7.11719 34.5771 8.64844 36.0457 9.25684C37.5845 9.89453 39.6863 9.7793 41.7483 9.66699L42.2139 9.6416C42.6003 9.62109 42.9824 9.60352 43.3542 9.60059C43.8413 9.59668 44.311 9.61719 44.7498 9.68457C45.2908 9.7666 45.7839 9.91113 46.1379 10.2656C46.4893 10.6162 46.6338 11.1094 46.7161 11.6504C46.835 12.4238 46.8066 13.2939 46.7585 14.1865C46.6423 16.3936 46.4583 18.7002 47.1438 20.3574C47.7498 21.8174 49.2739 23.1709 50.7927 24.5215L51.2209 24.9023C51.884 25.4941 52.5186 26.0918 52.9834 26.7324ZM31.124 19.7002C30.8958 20.2432 30.4941 20.6953 29.9817 20.9863L29.9897 21.001C30.8904 22.7744 32.1191 25.1943 33.9497 26.1514C35.499 26.9609 37.6631 26.6836 39.3418 26.4658C39.3787 26.0967 39.5178 25.7441 39.7437 25.4492C39.9695 25.1543 40.2727 24.9287 40.6199 24.7959C40.967 24.6641 41.344 24.6309 41.7087 24.7012C42.0735 24.7715 42.4116 24.9414 42.6851 25.1924C42.9585 25.4443 43.1567 25.7666 43.2571 26.124C43.2981 26.2695 43.3223 26.4189 43.3293 26.5684C43.3398 26.7861 43.3149 27.0059 43.2542 27.2168C43.1516 27.5742 42.9517 27.8955 42.6768 28.1455C42.4019 28.3955 42.063 28.5635 41.6978 28.6318L37.7683 38.7783C37.4768 39.5303 36.9648 40.1768 36.2991 40.6328C35.9109 40.8984 35.4812 41.0928 35.0303 41.208C34.708 41.291 34.3752 41.333 34.0391 41.333H23.2925C22.4856 41.333 21.6978 41.0889 21.0322 40.6328C20.3667 40.1768 19.8545 39.5303 19.563 38.7783L15.6323 28.6318C15.2649 28.5625 14.9241 28.3926 14.6484 28.1396C14.3728 27.8867 14.1736 27.5625 14.0732 27.2021C13.9731 26.8418 13.9756 26.4609 14.0811 26.1025C14.1389 25.9053 14.2263 25.7197 14.3394 25.5508C14.4324 25.4121 14.543 25.2852 14.6689 25.1729C14.948 24.9238 15.2913 24.7588 15.6597 24.6943C16.0281 24.6309 16.4067 24.6719 16.7532 24.8125C17.0994 24.9531 17.3994 25.1885 17.6189 25.4912C17.8384 25.7939 17.9688 26.1523 17.9951 26.5244C19.635 26.8262 21.843 27.2305 23.3816 26.4258C25.208 25.4707 26.407 22.9658 27.2751 21.1514L27.3418 21.0127L27.355 20.9893C26.842 20.6992 26.4395 20.248 26.21 19.7061C25.9805 19.1631 25.9373 18.5596 26.0867 17.9902C26.2361 17.4209 26.5698 16.916 27.0359 16.5566C27.5022 16.1963 28.0742 16.001 28.6633 16C29.0415 15.999 29.4131 16.0791 29.7542 16.2314C29.9441 16.3164 30.1248 16.4238 30.2917 16.5527C30.7588 16.9121 31.0935 17.416 31.2441 17.9854C31.3945 18.5547 31.3525 19.1572 31.124 19.7002ZM32.7151 28.5156C30.9509 27.5918 29.7231 25.8037 28.699 24.1426C27.6831 25.8926 26.4536 27.8291 24.6165 28.7891C22.8577 29.709 20.687 29.5889 18.7683 29.3438L22.0498 37.8145C22.0906 37.9189 22.144 38.0186 22.209 38.1094C22.2988 38.2344 22.4104 38.3438 22.5391 38.4326C22.761 38.585 23.0234 38.666 23.2925 38.666H34.0391C34.3079 38.666 34.5706 38.585 34.7922 38.4326C35.0139 38.2803 35.1846 38.0645 35.2817 37.8145L38.6084 29.2266C36.6616 29.3926 34.4844 29.4395 32.7151 28.5156Z" fill="#2C4FA9"/>
</svg>
