<svg width="28" height="27" viewBox="0 0 28 27" fill="none" xmlns="http://www.w3.org/2000/svg">
<path d="M23.4001 4.04707C22.1777 2.81231 20.7216 1.8333 19.1169 1.16714C17.5122 0.500984 15.7909 0.161019 14.0534 0.167072C6.7734 0.167072 0.840065 6.1004 0.840065 13.3804C0.840065 15.7137 1.4534 17.9804 2.60007 19.9804L0.733398 26.8337L7.7334 24.9937C9.66673 26.0471 11.8401 26.6071 14.0534 26.6071C21.3334 26.6071 27.2667 20.6737 27.2667 13.3937C27.2667 9.8604 25.8934 6.5404 23.4001 4.04707ZM14.0534 24.3671C12.0801 24.3671 10.1467 23.8337 8.4534 22.8337L8.0534 22.5937L3.8934 23.6871L5.00006 19.6337L4.7334 19.2204C3.63706 17.4697 3.05492 15.4461 3.0534 13.3804C3.0534 7.32707 7.98673 2.39374 14.0401 2.39374C16.9734 2.39374 19.7334 3.54041 21.8001 5.62041C22.8234 6.63902 23.6343 7.85062 24.1859 9.18497C24.7375 10.5193 25.0188 11.9499 25.0134 13.3937C25.0401 19.4471 20.1067 24.3671 14.0534 24.3671ZM20.0801 16.1537C19.7467 15.9937 18.1201 15.1937 17.8267 15.0737C17.5201 14.9671 17.3067 14.9137 17.0801 15.2337C16.8534 15.5671 16.2267 16.3137 16.0401 16.5271C15.8534 16.7537 15.6534 16.7804 15.3201 16.6071C14.9867 16.4471 13.9201 16.0871 12.6667 14.9671C11.6801 14.0871 11.0267 13.0071 10.8267 12.6737C10.6401 12.3404 10.8001 12.1671 10.9734 11.9937C11.1201 11.8471 11.3067 11.6071 11.4667 11.4204C11.6267 11.2337 11.6934 11.0871 11.8001 10.8737C11.9067 10.6471 11.8534 10.4604 11.7734 10.3004C11.6934 10.1404 11.0267 8.51374 10.7601 7.84707C10.4934 7.20707 10.2134 7.28707 10.0134 7.27374H9.3734C9.14673 7.27374 8.80006 7.35374 8.4934 7.68707C8.20006 8.0204 7.34673 8.82041 7.34673 10.4471C7.34673 12.0737 8.5334 13.6471 8.6934 13.8604C8.8534 14.0871 11.0267 17.4204 14.3334 18.8471C15.1201 19.1937 15.7334 19.3937 16.2134 19.5404C17.0001 19.7937 17.7201 19.7537 18.2934 19.6737C18.9334 19.5804 20.2534 18.8737 20.5201 18.1004C20.8001 17.3271 20.8001 16.6737 20.7067 16.5271C20.6134 16.3804 20.4134 16.3137 20.0801 16.1537Z" fill="#2C4FA9"/>
</svg>
